<?xml version="1.0" encoding="UTF-8"?>
<svg version="1.1" xmlns="http://www.w3.org/2000/svg" width="392" height="457">
<path d="M0 0 C4.7934792 0.14525695 6.94605034 2.49501008 10.05859375 5.7890625 C13.01642519 9.15753855 15.82365248 12.64079542 18.62890625 16.13671875 C20.90753214 18.88833782 23.29308801 21.47019902 25.75 24.0625 C32.00317018 30.85054477 37.17992338 38.38536646 42.50292969 45.90820312 C44.50970597 48.7121919 46.59265629 51.44865839 48.6875 54.1875 C62.23683684 72.19580042 73.64614207 91.7479828 83.87255859 111.80078125 C84.92593357 113.85552395 86.00047477 115.89749102 87.08203125 117.9375 C100.61094846 143.76933826 120.97252785 188.26369669 113 218.4375 C111.9155373 223.45314 111.94660939 228.21133284 112.03466797 233.32617188 C112.09091654 239.23638804 111.6821983 245.05521158 111.125 250.9375 C111.04636719 251.80093018 110.96773437 252.66436035 110.88671875 253.55395508 C109.94332951 262.97605509 107.82868873 271.33859577 104 280 C103.47792969 281.20462891 103.47792969 281.20462891 102.9453125 282.43359375 C99.5879571 289.6692735 94.9777649 295.80485726 90 302 C89.56349121 302.54624023 89.12698242 303.09248047 88.67724609 303.65527344 C80.27894957 314.08722459 72.19081101 323.9085045 59 328 C57.58259858 328.45605603 56.16592083 328.91436772 54.75 329.375 C54.00492188 329.6121875 53.25984375 329.849375 52.4921875 330.09375 C49.52332136 331.17333769 46.73402902 332.5311878 43.875 333.875 C23.51524625 342.65075592 1.6191191 344.21900385 -20 340 C-21.35491899 339.77658787 -22.71042847 339.55673705 -24.06640625 339.33984375 C-31.28304038 338.15049859 -37.68059677 336.82558914 -44 333 C-44.78890625 332.59136719 -45.5778125 332.18273437 -46.390625 331.76171875 C-52.20343321 328.7448373 -57.71889396 325.34319395 -63.1875 321.75 C-63.85982666 321.31349121 -64.53215332 320.87698242 -65.22485352 320.42724609 C-66.85439908 319.33947207 -68.43285168 318.17588997 -70 317 C-70 316.34 -70 315.68 -70 315 C-70.66 315 -71.32 315 -72 315 C-74.54793988 312.534696 -76.73452948 309.72390562 -79 307 C-79.64582031 306.25234375 -80.29164062 305.5046875 -80.95703125 304.734375 C-89.73939713 294.27175372 -95.47630536 282.83163384 -100 270 C-100.5072449 268.69017353 -101.01781637 267.38163173 -101.53125 266.07421875 C-107.77072295 249.89321101 -109.26114834 234.37339753 -109.3125 217.125 C-109.31626648 216.42334717 -109.32003296 215.72169434 -109.32391357 214.9987793 C-109.45993814 164.99439538 -82.43428492 114.96027499 -56 74 C-55.12057811 72.62532973 -54.24164131 71.25034898 -53.36328125 69.875 C-51.87437983 67.54758045 -50.37621673 65.22721714 -48.87109375 62.91015625 C-47.21925767 60.34101663 -45.63374199 57.74373664 -44.0625 55.125 C-43.381875 54.09375 -42.70125 53.0625 -42 52 C-41.34 52 -40.68 52 -40 52 C-39.75894531 51.29488281 -39.51789063 50.58976562 -39.26953125 49.86328125 C-37.7946657 46.53689219 -35.93390813 44.05157845 -33.6875 41.1875 C-33.25236084 40.63126953 -32.81722168 40.07503906 -32.36889648 39.50195312 C-24.2382012 29.15716529 -15.92079996 18.9576605 -7.33813477 8.984375 C-4.91234207 6.16926731 -4.91234207 6.16926731 -3 3 C-2.34 3 -1.68 3 -1 3 C-0.67 2.01 -0.34 1.02 0 0 Z " fill="#FBFCFE" transform="translate(197,66)"/>
<path d="M0 0 C4.7934792 0.14525695 6.94605034 2.49501008 10.05859375 5.7890625 C13.01642519 9.15753855 15.82365248 12.64079542 18.62890625 16.13671875 C20.90753214 18.88833782 23.29308801 21.47019902 25.75 24.0625 C32.00317018 30.85054477 37.17992338 38.38536646 42.50292969 45.90820312 C44.50970597 48.7121919 46.59265629 51.44865839 48.6875 54.1875 C62.23683684 72.19580042 73.64614207 91.7479828 83.87255859 111.80078125 C84.92593357 113.85552395 86.00047477 115.89749102 87.08203125 117.9375 C100.61094846 143.76933826 120.97252785 188.26369669 113 218.4375 C111.9155373 223.45314 111.94660939 228.21133284 112.03466797 233.32617188 C112.09091654 239.23638804 111.6821983 245.05521158 111.125 250.9375 C111.04636719 251.80093018 110.96773437 252.66436035 110.88671875 253.55395508 C109.94332951 262.97605509 107.82868873 271.33859577 104 280 C103.47792969 281.20462891 103.47792969 281.20462891 102.9453125 282.43359375 C99.5879571 289.6692735 94.9777649 295.80485726 90 302 C89.56349121 302.54624023 89.12698242 303.09248047 88.67724609 303.65527344 C80.27894957 314.08722459 72.19081101 323.9085045 59 328 C57.58259858 328.45605603 56.16592083 328.91436772 54.75 329.375 C54.00492188 329.6121875 53.25984375 329.849375 52.4921875 330.09375 C49.52332136 331.17333769 46.73402902 332.5311878 43.875 333.875 C23.51524625 342.65075592 1.6191191 344.21900385 -20 340 C-21.35491899 339.77658787 -22.71042847 339.55673705 -24.06640625 339.33984375 C-31.28304038 338.15049859 -37.68059677 336.82558914 -44 333 C-44.78890625 332.59136719 -45.5778125 332.18273437 -46.390625 331.76171875 C-52.20343321 328.7448373 -57.71889396 325.34319395 -63.1875 321.75 C-63.85982666 321.31349121 -64.53215332 320.87698242 -65.22485352 320.42724609 C-66.85439908 319.33947207 -68.43285168 318.17588997 -70 317 C-70 316.34 -70 315.68 -70 315 C-70.66 315 -71.32 315 -72 315 C-74.54793988 312.534696 -76.73452948 309.72390562 -79 307 C-79.64582031 306.25234375 -80.29164062 305.5046875 -80.95703125 304.734375 C-89.73939713 294.27175372 -95.47630536 282.83163384 -100 270 C-100.5072449 268.69017353 -101.01781637 267.38163173 -101.53125 266.07421875 C-107.77072295 249.89321101 -109.26114834 234.37339753 -109.3125 217.125 C-109.31626648 216.42334717 -109.32003296 215.72169434 -109.32391357 214.9987793 C-109.45993814 164.99439538 -82.43428492 114.96027499 -56 74 C-55.12057811 72.62532973 -54.24164131 71.25034898 -53.36328125 69.875 C-51.87437983 67.54758045 -50.37621673 65.22721714 -48.87109375 62.91015625 C-47.21925767 60.34101663 -45.63374199 57.74373664 -44.0625 55.125 C-43.381875 54.09375 -42.70125 53.0625 -42 52 C-41.34 52 -40.68 52 -40 52 C-39.75894531 51.29488281 -39.51789063 50.58976562 -39.26953125 49.86328125 C-37.7946657 46.53689219 -35.93390813 44.05157845 -33.6875 41.1875 C-33.25236084 40.63126953 -32.81722168 40.07503906 -32.36889648 39.50195312 C-24.2382012 29.15716529 -15.92079996 18.9576605 -7.33813477 8.984375 C-4.91234207 6.16926731 -4.91234207 6.16926731 -3 3 C-2.34 3 -1.68 3 -1 3 C-0.67 2.01 -0.34 1.02 0 0 Z M1 21 C-1.00612751 23.08788474 -1.00612751 23.08788474 -2.9375 25.75 C-4.87924519 28.30906303 -6.74430336 30.74578423 -9.0234375 33.01171875 C-11.20934818 35.21058937 -12.90576096 37.52622997 -14.6875 40.0625 C-17.54184401 44.06177678 -20.51895368 47.87027261 -23.6875 51.625 C-26.90959207 55.50140769 -29.39000364 59.28264597 -31.6875 63.75 C-33.24558209 66.42099786 -35.08935062 68.68311398 -37.0625 71.0625 C-42.73593257 77.78097369 -42.73593257 77.78097369 -45 86 C-45.66 86 -46.32 86 -47 86 C-47.84114171 87.43294498 -48.67265687 88.87154405 -49.5 90.3125 C-49.9640625 91.11300781 -50.428125 91.91351563 -50.90625 92.73828125 C-52.21767886 95.0314118 -52.21767886 95.0314118 -52 98 C-52.66 98 -53.32 98 -54 98 C-58.57945833 106.27764633 -63.09583165 114.57072354 -66.875 123.25 C-68.59604577 127.1937729 -70.49761922 131.03554497 -72.4375 134.875 C-78.3796313 146.66112404 -83.36169588 158.31791136 -87 171 C-87.33257812 172.06734375 -87.66515625 173.1346875 -88.0078125 174.234375 C-90.77375748 183.61809944 -91.85103019 192.71828021 -92.60546875 202.4453125 C-92.85924123 205.70586477 -93.34901848 208.79432628 -94 212 C-94.85604135 224.77477096 -93.97535009 239.72797502 -90 252 C-89.34 252.33 -88.68 252.66 -88 253 C-87.53528735 254.71194145 -87.15508184 256.44700034 -86.8125 258.1875 C-85.03435106 265.81986235 -81.66443534 272.12085547 -78 279 C-76.99451932 280.99725026 -75.99272953 282.99638125 -75 285 C-74.34 285 -73.68 285 -73 285 C-72.773125 285.54398437 -72.54625 286.08796875 -72.3125 286.6484375 C-70.6119332 289.69528634 -68.3720882 292.09762561 -66 294.625 C-65.26958496 295.41015991 -65.26958496 295.41015991 -64.52441406 296.21118164 C-51.68855897 309.93391539 -40.91919271 318.98450056 -22.58984375 324.203125 C-20 325 -20 325 -19 326 C-12.17674022 327.14533289 -5.40597307 327.18341363 1.5 327.1875 C2.58925781 327.19974609 3.67851562 327.21199219 4.80078125 327.22460938 C10.92167565 327.23571136 16.13664867 326.7523425 22 325 C23.99601306 324.6435691 25.994845 324.30077325 28 324 C28 323.34 28 322.68 28 322 C29.670625 321.9071875 29.670625 321.9071875 31.375 321.8125 C43.10009331 320.32359926 55.49196027 310.80406481 64 303 C64 302.34 64 301.68 64 301 C64.61875 300.7525 65.2375 300.505 65.875 300.25 C68.35068687 298.79371361 68.95125002 297.62187494 70 295 C70.66 295 71.32 295 72 295 C73.42742928 293.02878814 74.72157517 291.06582078 76 289 C76.40508789 288.36288086 76.81017578 287.72576172 77.22753906 287.06933594 C78.53602777 285.01028772 79.83165297 282.94358769 81.125 280.875 C81.56714844 280.17246094 82.00929688 279.46992188 82.46484375 278.74609375 C82.89152344 278.06417969 83.31820312 277.38226563 83.7578125 276.6796875 C84.1408252 276.06851074 84.52383789 275.45733398 84.91845703 274.82763672 C86.05303236 272.97723548 86.05303236 272.97723548 87.01513672 270.83251953 C88 269 88 269 90 268 C90.74886479 266.02930318 91.39589082 264.01977636 92 262 C92.20125488 261.35450195 92.40250977 260.70900391 92.60986328 260.04394531 C93.27513068 257.90843191 93.92013012 255.76750368 94.5625 253.625 C94.89411133 252.54992187 94.89411133 252.54992187 95.23242188 251.453125 C95.44576172 250.73898437 95.65910156 250.02484375 95.87890625 249.2890625 C96.0704126 248.65693848 96.26191895 248.02481445 96.45922852 247.37353516 C97.95159472 240.82329397 98.1401426 234.36991843 98.09765625 227.6875 C98.0962413 226.83317383 98.09482635 225.97884766 98.09336853 225.09863281 C98.08781962 222.39905127 98.07527697 219.69955601 98.0625 217 C98.05747839 215.15755329 98.05291664 213.31510527 98.04882812 211.47265625 C98.03786699 206.98173814 98.02063825 202.49088364 98 198 C97.34 198 96.68 198 96 198 C95.96132813 196.51113281 95.96132813 196.51113281 95.921875 194.9921875 C95.56902462 185.58400847 94.52372345 176.84255131 91 168 C90.34 167.67 89.68 167.34 89 167 C88.4375 164.453125 88.4375 164.453125 88 161.25 C87.44050808 157.19368355 86.66611524 153.74875929 85 150 C84.34 150 83.68 150 83 150 C82.8453125 148.1128125 82.8453125 148.1128125 82.6875 146.1875 C82.25858135 142.69487669 81.73337662 141.29603636 79 139 C78.30380706 137.34544942 77.64265163 135.67607312 77 134 C76.13512377 132.05795974 75.25997215 130.12046548 74.375 128.1875 C73.92898438 127.21167969 73.48296875 126.23585938 73.0234375 125.23046875 C72.51683594 124.12638672 72.51683594 124.12638672 72 123 C71.34 123 70.68 123 70 123 C68.66666667 118.33333333 67.33333333 113.66666667 66 109 C65.34 109 64.68 109 64 109 C63.9175 108.29875 63.835 107.5975 63.75 106.875 C63.01127595 104.04322446 61.93676403 102.31054822 60.25390625 99.95703125 C57.42713683 95.54515749 55.28559111 90.70831769 53 86 C52.34 86 51.68 86 51 86 C50.5978125 84.9171875 50.5978125 84.9171875 50.1875 83.8125 C49.00098638 81.00233617 47.72514361 78.51583443 46 76 C45.34 76 44.68 76 44 76 C43.79375 75.319375 43.5875 74.63875 43.375 73.9375 C42.11620838 71.24826337 41.02242468 69.77945815 39.0625 67.625 C36.62957707 64.90687797 35.33932295 62.54539516 34.046875 59.109375 C31.52070472 54.0193304 27.70473325 49.28118131 24 45 C23.34 45 22.68 45 22 45 C22 44.34 22 43.68 22 43 C21.34 42.67 20.68 42.34 20 42 C19.36771484 40.94232422 19.36771484 40.94232422 18.72265625 39.86328125 C16.60200898 36.33848658 14.09331621 33.31794302 11.4375 30.1875 C10.94314453 29.59001953 10.44878906 28.99253906 9.93945312 28.37695312 C8.67291249 26.87732788 7.34104562 25.43338679 6 24 C5.34 24 4.68 24 4 24 C4 23.01 4 22.02 4 21 C3.01 21 2.02 21 1 21 Z " fill="#0D48A5" transform="translate(197,66)"/>
<path d="M0 0 C1.32 0 2.64 0 4 0 C4.67154933 1.28913487 5.33708859 2.58140204 6 3.875 C6.37125 4.59429687 6.7425 5.31359375 7.125 6.0546875 C8 8 8 8 8 10 C8.66 10 9.32 10 10 10 C13 16.75 13 16.75 13 19 C13.66 19 14.32 19 15 19 C15.495 19.99 15.495 19.99 16 21 C16.99 21.33 17.98 21.66 19 22 C19.495 23.485 19.495 23.485 20 25 C20.66 25.33 21.32 25.66 22 26 C22.68001954 27.63204691 23.35666943 29.26558512 24.015625 30.90625 C25.13540025 33.28799418 26.50320459 35.33631554 28 37.5 C30.57495064 41.23844686 32.30434105 44.80122546 34 49 C34.556875 49.886875 35.11375 50.77375 35.6875 51.6875 C37 54 37 54 37 58 C37.66 58 38.32 58 39 58 C39 58.99 39 59.98 39 61 C39.66 61 40.32 61 41 61 C41.495 65.455 41.495 65.455 42 70 C42.66 70 43.32 70 44 70 C45.52891894 79.55574339 46.40086249 89.7976662 43 99 C42.65864073 100.33130115 42.32074044 101.66358148 42 103 C41.34 103 40.68 103 40 103 C39.87431641 104.31871094 39.87431641 104.31871094 39.74609375 105.6640625 C38.88917102 109.49553901 37.55478972 111.37343589 35.0625 114.375 C34.35222656 115.24898438 33.64195312 116.12296875 32.91015625 117.0234375 C32.27980469 117.67570312 31.64945312 118.32796875 31 119 C30.34 119 29.68 119 29 119 C29 119.66 29 120.32 29 121 C25.53846154 124 25.53846154 124 23 124 C23 124.66 23 125.32 23 126 C22.01 126 21.02 126 20 126 C20 126.66 20 127.32 20 128 C13.55583812 130.86659314 8.26097351 131.43575903 1.25 131.3125 C-0.14798828 131.31733398 -0.14798828 131.31733398 -1.57421875 131.32226562 C-5.99467466 131.28738398 -9.0979133 131.24420241 -13 129 C-13 128.34 -13 127.68 -13 127 C-14.98 126.67 -16.96 126.34 -19 126 C-19 125.34 -19 124.68 -19 124 C-19.56847656 123.91878906 -20.13695312 123.83757812 -20.72265625 123.75390625 C-27.47469231 121.51866961 -32.6425239 113.58496089 -36.22265625 107.7265625 C-37 106 -37 106 -37 103 C-37.66 103 -38.32 103 -39 103 C-41.78300402 89.92982042 -42.58700351 75.51207088 -37 63 C-36.34 63 -35.68 63 -35 63 C-34.89042969 62.39671875 -34.78085938 61.7934375 -34.66796875 61.171875 C-33.78376663 56.71492121 -33.07805928 53.47954527 -30 50 C-29.67 49.01 -29.34 48.02 -29 47 C-28.34 47 -27.68 47 -27 47 C-26.896875 46.0925 -26.79375 45.185 -26.6875 44.25 C-25.99350187 40.96928156 -25.29914332 39.39110905 -23 37 C-22.34 37 -21.68 37 -21 37 C-21 36.01 -21 35.02 -21 34 C-20.34 34 -19.68 34 -19 34 C-19 33.34 -19 32.68 -19 32 C-18.34 32 -17.68 32 -17 32 C-16.7525 30.948125 -16.505 29.89625 -16.25 28.8125 C-15.19024712 25.1180837 -13.48229127 22.96495902 -11 20 C-9.41146476 17.36058759 -7.8794958 14.6954783 -6.3671875 12.01171875 C-5.91601562 11.34785156 -5.46484375 10.68398437 -5 10 C-4.34 10 -3.68 10 -3 10 C-3 9.01 -3 8.02 -3 7 C-2.34 7 -1.68 7 -1 7 C-0.67 4.69 -0.34 2.38 0 0 Z " fill="#049FFA" transform="translate(198,148)"/>
<path d="M0 0 C1.85238281 0.01450195 1.85238281 0.01450195 3.7421875 0.02929688 C8.79665649 0.09234069 13.55777249 0.17905055 18.5 1.3125 C18.5 1.9725 18.5 2.6325 18.5 3.3125 C19.49 3.3125 20.48 3.3125 21.5 3.3125 C21.5 4.9625 21.5 6.6125 21.5 8.3125 C20.84 8.3125 20.18 8.3125 19.5 8.3125 C19.231875 8.88613281 18.96375 9.45976562 18.6875 10.05078125 C13.19569148 20.51050866 3.81826944 28.83749989 -6.5 34.3125 C-6.995 34.869375 -7.49 35.42625 -8 36 C-10.46689386 38.15853213 -13.33569879 38.01398102 -16.5 38.3125 C-16.5 38.9725 -16.5 39.6325 -16.5 40.3125 C-17.49 40.3125 -18.48 40.3125 -19.5 40.3125 C-19.5 40.9725 -19.5 41.6325 -19.5 42.3125 C-20.06847656 42.36148438 -20.63695312 42.41046875 -21.22265625 42.4609375 C-21.99480469 42.53570312 -22.76695312 42.61046875 -23.5625 42.6875 C-24.69365234 42.79191406 -24.69365234 42.79191406 -25.84765625 42.8984375 C-28.60849199 43.25421494 -28.60849199 43.25421494 -31.5703125 44.3359375 C-36.72244534 45.86244384 -41.98462111 45.60208795 -47.3125 45.5625 C-48.34181641 45.57023437 -49.37113281 45.57796875 -50.43164062 45.5859375 C-58.9779955 45.56431484 -66.56406881 44.48687248 -74.5 41.3125 C-76.14227748 40.98182146 -77.78869856 40.67144127 -79.4375 40.375 C-83.54046867 39.60837656 -86.85772883 38.42118331 -90.5 36.3125 C-90.5 35.6525 -90.5 34.9925 -90.5 34.3125 C-91.07234375 34.0546875 -91.6446875 33.796875 -92.234375 33.53125 C-94.71128995 32.19884058 -96.6341166 30.66193882 -98.75 28.8125 C-99.80960938 27.89984375 -99.80960938 27.89984375 -100.890625 26.96875 C-102.5 25.3125 -102.5 25.3125 -102.5 23.3125 C-93.59 23.3125 -84.68 23.3125 -75.5 23.3125 C-75.5 22.6525 -75.5 21.9925 -75.5 21.3125 C-73.63021484 21.03599609 -73.63021484 21.03599609 -71.72265625 20.75390625 C-59.83426777 18.79932879 -50.69941075 15.27898463 -40.31005859 9.30322266 C-37.11162122 7.55258078 -33.7905986 6.33254299 -30.32592773 5.2253418 C-28.42411933 4.6110125 -26.53290419 3.96298527 -24.65332031 3.28369141 C-16.26618475 0.40053032 -8.82427112 -0.21257612 0 0 Z " fill="#047FE5" transform="translate(247.5,334.6875)"/>
<path d="M0 0 C1.03697021 -0.00064453 2.07394043 -0.00128906 3.14233398 -0.00195312 C9.48154818 0.04277155 15.70599696 0.43121009 22 1.1875 C22 1.8475 22 2.5075 22 3.1875 C23.093125 3.166875 24.18625 3.14625 25.3125 3.125 C29 3.1875 29 3.1875 32 4.1875 C32.32541383 9.55682824 30.67970388 14.14838837 29 19.1875 C26.54104382 18.87938262 24.08291693 18.56621012 21.625 18.25 C20.92632812 18.16298828 20.22765625 18.07597656 19.5078125 17.98632812 C14.2265625 17.30078125 14.2265625 17.30078125 12 16.1875 C7.73994078 15.92732454 3.47573798 15.91626473 -0.79125977 15.89233398 C-2.2060758 15.88090731 -3.62085198 15.86060611 -5.03540039 15.83081055 C-13.12070884 15.66060354 -20.14576901 15.94246873 -27.70068359 19.25024414 C-31.11616967 20.64247721 -34.33985634 20.91126274 -38 21.1875 C-38 21.8475 -38 22.5075 -38 23.1875 C-38.60328125 23.38085938 -39.2065625 23.57421875 -39.828125 23.7734375 C-40.62734375 24.03382813 -41.4265625 24.29421875 -42.25 24.5625 C-43.03890625 24.81773437 -43.8278125 25.07296875 -44.640625 25.3359375 C-47.00295956 26.13140705 -47.00295956 26.13140705 -49.125 27.28125 C-51.50613072 28.43212985 -53.38995556 28.33250247 -56 28.1875 C-56 28.8475 -56 29.5075 -56 30.1875 C-58.31 30.5175 -60.62 30.8475 -63 31.1875 C-63 31.8475 -63 32.5075 -63 33.1875 C-64.32 33.1875 -65.64 33.1875 -67 33.1875 C-67 33.8475 -67 34.5075 -67 35.1875 C-75.54853426 39.9522568 -86.24203004 39.36740881 -95.75 39.375 C-97.20466675 39.3762085 -97.20466675 39.3762085 -98.6887207 39.37744141 C-104.53087968 39.33252859 -110.20530295 38.93270281 -116 38.1875 C-116 37.5275 -116 36.8675 -116 36.1875 C-119.63 35.8575 -123.26 35.5275 -127 35.1875 C-127 34.1975 -127 33.2075 -127 32.1875 C-127.66 32.1875 -128.32 32.1875 -129 32.1875 C-129.67493341 29.96082235 -130.33963044 27.73104023 -131 25.5 C-131.37125 24.25863281 -131.7425 23.01726562 -132.125 21.73828125 C-132.87703457 18.6864981 -133.19034899 16.29851638 -133 13.1875 C-132.18015625 13.60902344 -131.3603125 14.03054688 -130.515625 14.46484375 C-129.43796875 15.01269531 -128.3603125 15.56054688 -127.25 16.125 C-125.64898437 16.94291016 -125.64898437 16.94291016 -124.015625 17.77734375 C-121.61554115 18.89966275 -119.58143248 19.69251659 -117 20.1875 C-117 20.8475 -117 21.5075 -117 22.1875 C-112.60750699 22.21244208 -108.21505283 22.23047329 -103.82250977 22.24243164 C-102.33194255 22.24742328 -100.84138014 22.25421894 -99.35083008 22.26293945 C-86.29612162 23.08430267 -86.29612162 23.08430267 -74.01782227 20.14868164 C-72 19.1875 -72 19.1875 -68 19.1875 C-68 18.5275 -68 17.8675 -68 17.1875 C-65.09399739 15.93085022 -63.20395416 15.1875 -60 15.1875 C-60 14.5275 -60 13.8675 -60 13.1875 C-56.7 12.5275 -53.4 11.8675 -50 11.1875 C-50 10.5275 -50 9.8675 -50 9.1875 C-48.68 9.1875 -47.36 9.1875 -46 9.1875 C-46 8.5275 -46 7.8675 -46 7.1875 C-41.545 6.6925 -41.545 6.6925 -37 6.1875 C-37 5.5275 -37 4.8675 -37 4.1875 C-35.02 4.1875 -33.04 4.1875 -31 4.1875 C-31 3.5275 -31 2.8675 -31 2.1875 C-20.65093639 0.70717417 -10.45978544 -0.00622653 0 0 Z " fill="#08A1F9" transform="translate(251,296.8125)"/>
<path d="M0 0 C1.10408203 -0.00128906 2.20816406 -0.00257813 3.34570312 -0.00390625 C4.48330078 -0.00003906 5.62089844 0.00382812 6.79296875 0.0078125 C7.94990234 0.00394531 9.10683594 0.00007813 10.29882812 -0.00390625 C11.39646484 -0.00261719 12.49410156 -0.00132812 13.625 0 C14.62893799 0.00112793 15.63287598 0.00225586 16.66723633 0.00341797 C18.98046875 0.1328125 18.98046875 0.1328125 19.98046875 1.1328125 C22.24480291 1.50776046 24.51748665 1.83285193 26.79296875 2.1328125 C30.61921607 2.64033546 34.23207587 3.19571428 37.98046875 4.1328125 C37.32046875 7.4328125 36.66046875 10.7328125 35.98046875 14.1328125 C35.32046875 14.1328125 34.66046875 14.1328125 33.98046875 14.1328125 C33.65046875 15.4528125 33.32046875 16.7728125 32.98046875 18.1328125 C29.52739588 18.1328125 26.27531545 17.67633816 22.85546875 17.1953125 C21.59476563 17.02128906 20.3340625 16.84726562 19.03515625 16.66796875 C15.98046875 16.1328125 15.98046875 16.1328125 14.98046875 15.1328125 C13.05379368 15.04533043 11.12395014 15.02583916 9.1953125 15.03515625 C8.02548828 15.03837891 6.85566406 15.04160156 5.65039062 15.04492188 C4.41869141 15.05330078 3.18699219 15.06167969 1.91796875 15.0703125 C0.68240234 15.07482422 -0.55316406 15.07933594 -1.82617188 15.08398438 C-4.89067242 15.09581642 -7.95507846 15.11230077 -11.01953125 15.1328125 C-11.34953125 16.1228125 -11.67953125 17.1128125 -12.01953125 18.1328125 C-14.4609375 19.16015625 -14.4609375 19.16015625 -17.58203125 20.0703125 C-21.24857704 21.20746055 -24.69015674 22.33087917 -28.08203125 24.1328125 C-34.00757197 27.26328684 -40.26931501 30.1328125 -47.01953125 30.1328125 C-47.01953125 30.7928125 -47.01953125 31.4528125 -47.01953125 32.1328125 C-47.58800781 32.24238281 -48.15648437 32.35195313 -48.7421875 32.46484375 C-52.59274283 33.2555254 -55.96244112 34.10777297 -59.58203125 35.6953125 C-67.28617728 38.91704629 -75.93728842 38.37932452 -84.16577148 38.42797852 C-85.53208707 38.439581 -86.89835451 38.46016114 -88.2644043 38.48950195 C-90.2592791 38.53218965 -92.25470988 38.54574641 -94.25 38.55859375 C-96.01960083 38.58046753 -96.01960083 38.58046753 -97.82495117 38.6027832 C-102.39511681 37.93044321 -104.76641667 35.72452117 -107.56640625 32.16796875 C-107.9634375 31.51699219 -108.36046875 30.86601562 -108.76953125 30.1953125 C-109.176875 29.54691406 -109.58421875 28.89851563 -110.00390625 28.23046875 C-111.14183829 25.88020141 -111.5480624 23.69134844 -112.01953125 21.1328125 C-111.37081055 21.2042749 -110.72208984 21.2757373 -110.05371094 21.34936523 C-100.45087338 22.28720633 -90.9053408 22.24591673 -81.26953125 22.1953125 C-79.58984509 22.19028447 -77.91015747 22.18572388 -76.23046875 22.18164062 C-72.16011929 22.17074514 -68.08984196 22.15355334 -64.01953125 22.1328125 C-64.01953125 21.4728125 -64.01953125 20.8128125 -64.01953125 20.1328125 C-52.49789116 16.87313141 -52.49789116 16.87313141 -47.01953125 16.1328125 C-47.01953125 15.4728125 -47.01953125 14.8128125 -47.01953125 14.1328125 C-46.01792969 13.81828125 -45.01632813 13.50375 -43.984375 13.1796875 C-35.93866545 10.71575141 -35.93866545 10.71575141 -28.39453125 7.0703125 C-19.89895222 2.19322083 -9.74380301 0.01088606 0 0 Z " fill="#09439E" transform="translate(240.01953125,315.8671875)"/>
<path d="M0 0 C0.66 0 1.32 0 2 0 C3.4606285 2.64738916 4 3.89448334 4 7 C4.66 7 5.32 7 6 7 C7.52891894 16.55574339 8.40086249 26.7976662 5 36 C4.65864073 37.33130115 4.32074044 38.66358148 4 40 C3.34 40 2.68 40 2 40 C1.91621094 40.87914062 1.83242187 41.75828125 1.74609375 42.6640625 C0.88917102 46.49553901 -0.44521028 48.37343589 -2.9375 51.375 C-3.64777344 52.24898438 -4.35804688 53.12296875 -5.08984375 54.0234375 C-5.72019531 54.67570312 -6.35054688 55.32796875 -7 56 C-7.66 56 -8.32 56 -9 56 C-9 56.66 -9 57.32 -9 58 C-12.46153846 61 -12.46153846 61 -15 61 C-15 61.66 -15 62.32 -15 63 C-15.99 63 -16.98 63 -18 63 C-18 63.66 -18 64.32 -18 65 C-24.44416188 67.86659314 -29.73902649 68.43575903 -36.75 68.3125 C-37.68199219 68.31572266 -38.61398438 68.31894531 -39.57421875 68.32226562 C-43.99467466 68.28738398 -47.0979133 68.24420241 -51 66 C-51 65.34 -51 64.68 -51 64 C-52.98 63.67 -54.96 63.34 -57 63 C-57 62.34 -57 61.68 -57 61 C-57.56847656 60.91878906 -58.13695312 60.83757812 -58.72265625 60.75390625 C-65.33107541 58.56621346 -70.73122953 50.70293459 -74.13671875 44.86328125 C-75.329221 42.28941893 -75.78880933 39.81587563 -76 37 C-75.34 37 -74.68 37 -74 37 C-72.74335022 39.90600261 -72 41.79604584 -72 45 C-71.2575 45.268125 -70.515 45.53625 -69.75 45.8125 C-67.10938051 46.95276751 -65.14447156 48.09380306 -63 50 C-63 50.66 -63 51.32 -63 52 C-57.21637465 53.65246439 -51.75689917 54.21708548 -45.75 54.25 C-45.06486328 54.25902344 -44.37972656 54.26804687 -43.67382812 54.27734375 C-39.63695202 54.25371326 -36.66505215 53.63757649 -33 52 C-32.01 52 -31.02 52 -30 52 C-29.67 51.01 -29.34 50.02 -29 49 C-27 47.66666667 -25 46.33333333 -23 45 C-22.67 44.01 -22.34 43.02 -22 42 C-21.34 42 -20.68 42 -20 42 C-19.67 40.35 -19.34 38.7 -19 37 C-18.34 37 -17.68 37 -17 37 C-16.21226083 33.46498542 -15.82504198 30.09750212 -15.68359375 26.48046875 C-15.62075195 24.9480957 -15.62075195 24.9480957 -15.55664062 23.38476562 C-15.51732422 22.32966797 -15.47800781 21.27457031 -15.4375 20.1875 C-15.37272461 18.57584961 -15.37272461 18.57584961 -15.30664062 16.93164062 C-15.20089017 14.28787918 -15.09879767 11.6440289 -15 9 C-14.01 8.67 -13.02 8.34 -12 8 C-11.95101562 8.61488281 -11.90203125 9.22976562 -11.8515625 9.86328125 C-11.73941406 11.07564453 -11.73941406 11.07564453 -11.625 12.3125 C-11.52058594 13.51326172 -11.52058594 13.51326172 -11.4140625 14.73828125 C-11.10435574 17.27224441 -11.10435574 17.27224441 -9 20 C-7.02 20 -5.04 20 -3 20 C-2.67 14.06 -2.34 8.12 -2 2 C-1.34 2 -0.68 2 0 2 C0 1.34 0 0.68 0 0 Z " fill="#0665CC" transform="translate(236,211)"/>
<path d="M0 0 C0.66 0 1.32 0 2 0 C2 0.66 2 1.32 2 2 C2.66 2 3.32 2 4 2 C7 6.38461538 7 6.38461538 7 9 C7.66 9 8.32 9 9 9 C12 15.75 12 15.75 12 18 C12.66 18 13.32 18 14 18 C14.33 18.66 14.66 19.32 15 20 C15.99 20.33 16.98 20.66 18 21 C18.33 21.99 18.66 22.98 19 24 C19.66 24.33 20.32 24.66 21 25 C21.68001954 26.63204691 22.35666943 28.26558512 23.015625 29.90625 C24.13540025 32.28799418 25.50320459 34.33631554 27 36.5 C29.57495064 40.23844686 31.30434105 43.80122546 33 48 C33.556875 48.886875 34.11375 49.77375 34.6875 50.6875 C36 53 36 53 36 57 C36.66 57 37.32 57 38 57 C38 57.99 38 58.98 38 60 C38.66 60 39.32 60 40 60 C40.495 62.97 40.495 62.97 41 66 C40.01 65.505 40.01 65.505 39 65 C39 64.01 39 63.02 39 62 C38.34 62 37.68 62 37 62 C37 62.66 37 63.32 37 64 C36.34 64 35.68 64 35 64 C35.01160156 65.28777344 35.02320313 66.57554687 35.03515625 67.90234375 C35.0445327 69.58072772 35.05363305 71.25911326 35.0625 72.9375 C35.07087891 73.78763672 35.07925781 74.63777344 35.08789062 75.51367188 C35.09111328 76.32255859 35.09433594 77.13144531 35.09765625 77.96484375 C35.10289307 78.7137085 35.10812988 79.46257324 35.11352539 80.23413086 C35 82 35 82 34 83 C28.74503311 83.57119205 28.74503311 83.57119205 26.125 81.5625 C24.4505849 77.74855449 24.76321893 74.10420515 25 70 C23.02 70.99 23.02 70.99 21 72 C20 71 20 71 19.5625 67.8125 C19.04018342 64.2723543 18.1295702 61.3805842 17 58 C16.33417935 55.39871689 15.68764401 52.79832252 15.0625 50.1875 C13.79865836 44.99289164 12.37831517 39.94958634 10.59375 34.90625 C9.67710129 31.96332521 9.32555735 29.06023907 9 26 C8.01 25.67 7.02 25.34 6 25 C1.37700387 17.59662542 0.85737568 8.46094423 0 0 Z " fill="#0A6ED3" transform="translate(199,149)"/>
<path d="M0 0 C0.33 0 0.66 0 1 0 C0.53802521 6.91369167 -0.67507228 13.47692822 -2.28125 20.21484375 C-4.1606711 30.11244728 -4.19363678 40.07847552 -4.1875 50.125 C-4.18756042 50.80742767 -4.18762085 51.48985535 -4.18768311 52.19296265 C-4.17457185 62.59979185 -3.75384989 72.72916675 -2 83 C-1.83242187 84.00933594 -1.66484375 85.01867187 -1.4921875 86.05859375 C-0.71823173 90.29078047 0.35947852 94.01587641 2 98 C2 99.32 2 100.64 2 102 C2.66 102 3.32 102 4 102 C4.268125 102.72703125 4.53625 103.4540625 4.8125 104.203125 C7.5458484 111.21632156 10.86730747 117.17680878 15.23046875 123.30859375 C16.88897698 125.83113718 17.8945303 128.20977517 19 131 C20.30518475 132.03647024 21.63461347 133.04422943 23 134 C23 134.66 23 135.32 23 136 C23.66 136 24.32 136 25 136 C26.48046875 137.50390625 26.48046875 137.50390625 28.1875 139.5625 C33.61797392 145.91491774 38.4946249 151.17072699 46 155 C46 155.66 46 156.32 46 157 C48.97130895 158.54508065 52.01234621 159.85800538 55.1015625 161.1484375 C57.00906817 162.00406762 58.79597593 162.98902045 60.625 164 C65.29220106 166.40264197 70.22741824 167.33605955 75.33984375 168.38671875 C78 169 78 169 79 170 C80.155 170.165 81.31 170.33 82.5 170.5 C86 171 86 171 87 172 C89.3452768 172.10603645 91.65420884 172.14002508 94 172.125 C94.72952881 172.12306641 95.45905762 172.12113281 96.21069336 172.11914062 C107.14705592 172.03833836 118.07612907 171.49516281 129 171 C115.1356274 178.12414339 95.77203235 175.8827845 81 173 C79.64508101 172.77658787 78.28957153 172.55673705 76.93359375 172.33984375 C69.71695962 171.15049859 63.31940323 169.82558914 57 166 C56.21109375 165.59136719 55.4221875 165.18273437 54.609375 164.76171875 C48.79656679 161.7448373 43.28110604 158.34319395 37.8125 154.75 C37.14017334 154.31349121 36.46784668 153.87698242 35.77514648 153.42724609 C34.14560092 152.33947207 32.56714832 151.17588997 31 150 C31 149.34 31 148.68 31 148 C30.34 148 29.68 148 29 148 C26.45206012 145.534696 24.26547052 142.72390562 22 140 C21.03126953 138.87851562 21.03126953 138.87851562 20.04296875 137.734375 C11.26060287 127.27175372 5.52369464 115.83163384 1 103 C0.4927551 101.69017353 -0.01781637 100.38163173 -0.53125 99.07421875 C-6.77072295 82.89321101 -8.26114834 67.37339753 -8.3125 50.125 C-8.31626648 49.42334717 -8.32003296 48.72169434 -8.32391357 47.9987793 C-8.35692703 35.86260713 -7.0690355 24.24865151 -4 12.5 C-3.835 11.83742187 -3.67 11.17484375 -3.5 10.4921875 C-2.57676495 6.87137504 -1.47842453 3.43205695 0 0 Z " fill="#DDE9F6" transform="translate(96,233)"/>
<path d="M0 0 C0.66 0 1.32 0 2 0 C2.03738281 1.21816406 2.07476562 2.43632812 2.11328125 3.69140625 C2.17898117 5.3151329 2.24542709 6.93882949 2.3125 8.5625 C2.33505859 9.36236328 2.35761719 10.16222656 2.38085938 10.98632812 C2.62295359 16.37842659 3.68784674 20.13484419 6 25 C6.4054103 27.32189536 6.76072994 29.65515344 7 32 C7.66 32 8.32 32 9 32 C10.22551382 37.05524452 10.48447709 41.77140538 9.375 46.875 C8 49 8 49 4.875 49.8125 C3.451875 49.9053125 3.451875 49.9053125 2 50 C2 50.66 2 51.32 2 52 C0.58217855 51.93940934 -0.83444466 51.85045877 -2.25 51.75 C-3.03890625 51.70359375 -3.8278125 51.6571875 -4.640625 51.609375 C-7.85413578 50.7793954 -9.04897493 49.67770483 -11 47 C-12.64531817 36.68761209 -10.22069229 26.05920736 -8 16 C-7.34 16 -6.68 16 -6 16 C-5.67 13.69 -5.34 11.38 -5 9 C-4.34 9 -3.68 9 -3 9 C-2.87625 8.443125 -2.7525 7.88625 -2.625 7.3125 C-1.94023145 4.77885636 -1.00866237 2.42078968 0 0 Z " fill="#E6F3FC" transform="translate(180,196)"/>
<path d="M0 0 C1.65 0.33 3.3 0.66 5 1 C5 1.99 5 2.98 5 4 C5.66 4 6.32 4 7 4 C7 5.32 7 6.64 7 8 C6.34 8 5.68 8 5 8 C5 8.99 5 9.98 5 11 C4.34 11 3.68 11 3 11 C2.67 13.97 2.34 16.94 2 20 C1.34 20 0.68 20 0 20 C0 21.65 0 23.3 0 25 C-0.66 25 -1.32 25 -2 25 C-2 26.98 -2 28.96 -2 31 C-2.66 31 -3.32 31 -4 31 C-4 31.99 -4 32.98 -4 34 C-5.32 34.33 -6.64 34.66 -8 35 C-7.01 32.525 -7.01 32.525 -6 30 C-5.34 30 -4.68 30 -4 30 C-3.34 26.7 -2.68 23.4 -2 20 C-3.28777344 19.86722656 -4.57554687 19.73445313 -5.90234375 19.59765625 C-7.58075362 19.41950101 -9.25913773 19.24110308 -10.9375 19.0625 C-11.78763672 18.97548828 -12.63777344 18.88847656 -13.51367188 18.79882812 C-14.32255859 18.71181641 -15.13144531 18.62480469 -15.96484375 18.53515625 C-16.7137085 18.456604 -17.46257324 18.37805176 -18.23413086 18.29711914 C-20 18 -20 18 -21 17 C-36.8693573 15.68661141 -54.80936417 15.82120273 -69.03515625 23.91796875 C-71.69899678 25.38493461 -74.45304437 26.55802011 -77.25 27.75 C-78.24515625 28.17796875 -79.2403125 28.6059375 -80.265625 29.046875 C-83 30 -83 30 -87 30 C-87 30.66 -87 31.32 -87 32 C-89.08108685 32.67364661 -91.1649671 33.33866798 -93.25 34 C-94.41015625 34.37125 -95.5703125 34.7425 -96.765625 35.125 C-100 36 -100 36 -104 36 C-104 36.66 -104 37.32 -104 38 C-111.66212322 38.94791379 -119.22230783 39.15196049 -126.9375 39.125 C-128.59168945 39.13080078 -128.59168945 39.13080078 -130.27929688 39.13671875 C-137.24009623 39.12850542 -144.08097861 38.76174304 -151 38 C-151.33 38.66 -151.66 39.32 -152 40 C-153.25664978 37.09399739 -154 35.20395416 -154 32 C-151.03 32.33 -148.06 32.66 -145 33 C-145 33.66 -145 34.32 -145 35 C-140.68076 35.05019229 -136.36168355 35.08608563 -132.04223633 35.10986328 C-130.57899003 35.11979663 -129.11576289 35.13334793 -127.65258789 35.15087891 C-116.87626628 35.27657185 -106.493762 34.77111374 -96 32 C-96 31.34 -96 30.68 -96 30 C-94.68 30 -93.36 30 -92 30 C-92 29.34 -92 28.68 -92 28 C-89.69 27.67 -87.38 27.34 -85 27 C-85 26.34 -85 25.68 -85 25 C-79.06682122 22.89603589 -73.17222879 21.24028238 -67 20 C-67 19.34 -67 18.68 -67 18 C-65.79601562 17.65066406 -64.59203125 17.30132812 -63.3515625 16.94140625 C-61.7760125 16.48187083 -60.20049325 16.02222994 -58.625 15.5625 C-57.8309375 15.33240234 -57.036875 15.10230469 -56.21875 14.86523438 C-55.45820313 14.64287109 -54.69765625 14.42050781 -53.9140625 14.19140625 C-53.2123291 13.98717041 -52.5105957 13.78293457 -51.78759766 13.57250977 C-49.92489242 13.02623679 -49.92489242 13.02623679 -48 12 C-43.70256954 11.78693683 -39.40100718 11.81420766 -35.09887695 11.81469727 C-32.97000461 11.81253304 -30.8416697 11.79443955 -28.71289062 11.77539062 C-21.51485664 11.74555334 -14.95284892 12.05750303 -8 14 C-7.13246094 14.20882813 -6.26492188 14.41765625 -5.37109375 14.6328125 C-3.58072917 15.08854167 -1.79036458 15.54427083 0 16 C0.07347656 15.12988281 0.07347656 15.12988281 0.1484375 14.2421875 C0.59649405 9.56076908 1.298021 5.42514541 3 1 C2.01 0.67 1.02 0.34 0 0 Z " fill="#B2D0ED" transform="translate(280,300)"/>
<path d="M0 0 C0.81404297 -0.00386719 1.62808594 -0.00773437 2.46679688 -0.01171875 C8.43573778 -0.00176222 8.43573778 -0.00176222 9.5625 1.125 C13.1801655 1.66312774 16.80615604 2.0917289 20.4375 2.52734375 C21.984375 2.82318359 21.984375 2.82318359 23.5625 3.125 C23.8925 3.785 24.2225 4.445 24.5625 5.125 C23.5725 5.125 22.5825 5.125 21.5625 5.125 C21.5625 5.785 21.5625 6.445 21.5625 7.125 C22.5525 7.455 23.5425 7.785 24.5625 8.125 C24.20625187 14.65621574 22.60424217 19.87400344 18.5625 25.125 C17.25075343 25.83319713 15.91901891 26.50687489 14.5625 27.125 C13.8787955 28.44967746 13.21285814 29.78363633 12.5625 31.125 C9.13392857 34.125 9.13392857 34.125 6.5625 34.125 C6.2325 35.115 5.9025 36.105 5.5625 37.125 C3.5825 37.455 1.6025 37.785 -0.4375 38.125 C-0.4375 38.785 -0.4375 39.445 -0.4375 40.125 C-1.4275 40.125 -2.4175 40.125 -3.4375 40.125 C-3.9325 41.115 -3.9325 41.115 -4.4375 42.125 C-5.0975 41.795 -5.7575 41.465 -6.4375 41.125 C-5.25951148 37.59103445 -4.58401295 37.35365981 -1.5 35.5 C7.06237666 29.97325131 13.72818191 23.61814179 19.1875 14.99609375 C19.64125 14.37863281 20.095 13.76117188 20.5625 13.125 C21.2225 13.125 21.8825 13.125 22.5625 13.125 C22.5625 11.475 22.5625 9.825 22.5625 8.125 C21.5725 8.125 20.5825 8.125 19.5625 8.125 C19.5625 7.465 19.5625 6.805 19.5625 6.125 C15.10088681 6.02467833 10.63990433 5.95286237 6.17749023 5.90527344 C4.66565488 5.88539563 3.1538939 5.85828327 1.64233398 5.82324219 C-8.45549507 5.59534561 -16.88272321 6.42294014 -26.4375 10.125 C-27.45473145 10.51413574 -28.47196289 10.90327148 -29.52001953 11.30419922 C-33.89578886 13.02054015 -38.12603875 14.9381208 -42.2890625 17.1171875 C-52.52298711 22.47312204 -62.58430576 26.95196704 -74.4375 26.125 C-74.4375 26.785 -74.4375 27.445 -74.4375 28.125 C-83.3475 28.125 -92.2575 28.125 -101.4375 28.125 C-101.4375 27.795 -101.4375 27.465 -101.4375 27.125 C-94.1775 26.795 -86.9175 26.465 -79.4375 26.125 C-88.3475 25.795 -97.2575 25.465 -106.4375 25.125 C-106.4375 24.795 -106.4375 24.465 -106.4375 24.125 C-105.61137207 24.10518066 -104.78524414 24.08536133 -103.93408203 24.06494141 C-100.82138326 23.98608928 -97.70902265 23.8993779 -94.59667969 23.80761719 C-92.6062787 23.75124001 -90.6156351 23.70364607 -88.625 23.65625 C-78.39405189 23.34622127 -69.366241 21.90285942 -59.6640625 18.7109375 C-57.4375 18.125 -57.4375 18.125 -53.4375 18.125 C-53.4375 17.465 -53.4375 16.805 -53.4375 16.125 C-52.50550781 15.83367187 -51.57351562 15.54234375 -50.61328125 15.2421875 C-42.88301493 12.77393061 -35.59262967 9.93830751 -28.265625 6.41015625 C-25.8957576 5.33324137 -23.69846503 4.52315561 -21.1875 3.875 C-20.28 3.6275 -19.3725 3.38 -18.4375 3.125 C-18.1075 2.465 -17.7775 1.805 -17.4375 1.125 C-11.62365439 0.0917181 -5.89245496 -0.02895555 0 0 Z " fill="#BDD7F0" transform="translate(246.4375,329.875)"/>
<path d="M0 0 C7.45427217 -0.29465144 14.32113338 0.55677936 21.625 2 C23.13126953 2.28617187 23.13126953 2.28617187 24.66796875 2.578125 C27.11366256 3.04397144 29.55744281 3.51802598 32 4 C32 4.66 32 5.32 32 6 C33.32 6 34.64 6 36 6 C36 6.66 36 7.32 36 8 C36.845625 7.938125 37.69125 7.87625 38.5625 7.8125 C42.62923846 8.0343221 45.30800519 9.31593219 49 11 C51.31856644 11.74719426 53.64420153 12.37499224 56 13 C56 13.66 56 14.32 56 15 C46.36137832 17.52816306 36.88563297 17.18269137 27 17 C27 16.34 27 15.68 27 15 C22.71 14.67 18.42 14.34 14 14 C14 13.34 14 12.68 14 12 C13.278125 11.896875 12.55625 11.79375 11.8125 11.6875 C8.72206579 10.93206053 6.58256159 9.84468685 4 8 C4 7.34 4 6.68 4 6 C2.68 5.34 1.36 4.68 0 4 C0 2.68 0 1.36 0 0 Z " fill="#0C45A0" transform="translate(117,300)"/>
<path d="M0 0 C0.66 0 1.32 0 2 0 C2.20109839 11.84778913 2.25918193 23.63189288 1.125 35.4375 C1.04652832 36.26918701 0.96805664 37.10087402 0.88720703 37.95776367 C-0.08825032 47.21150252 -2.23837159 55.49030216 -6 64 C-6.52207031 65.20462891 -6.52207031 65.20462891 -7.0546875 66.43359375 C-10.4120429 73.6692735 -15.0222351 79.80485726 -20 86 C-20.43650879 86.54624023 -20.87301758 87.09248047 -21.32275391 87.65527344 C-38.79403553 109.35724072 -38.79403553 109.35724072 -51 112 C-51.99 111.67 -52.98 111.34 -54 111 C-51.30335059 107.35858478 -48.69491074 104.88731881 -44.9375 102.375 C-36.25037624 96.22307434 -28.91560531 88.87340796 -23 80 C-22.26015869 79.26680542 -22.26015869 79.26680542 -21.50537109 78.51879883 C-18.97688044 75.96775433 -17.37438561 72.79654025 -15.625 69.6875 C-15.22869385 68.98560547 -14.8323877 68.28371094 -14.42407227 67.56054688 C-10.79259197 60.94678116 -8.2381703 54.19813564 -6 47 C-5.34 47 -4.68 47 -4 47 C-3.814375 45.2675 -3.814375 45.2675 -3.625 43.5 C-3.33025292 40.74902724 -2.81174814 38.38229859 -2 35.71875 C-0.27492834 28.99426683 -0.52537942 21.90335514 -0.375 15 C-0.33675034 13.54294718 -0.29769473 12.08591529 -0.2578125 10.62890625 C-0.16257494 7.08613074 -0.07827103 3.5431957 0 0 Z " fill="#C4D5ED" transform="translate(307,282)"/>
<path d="M0 0 C1.69193359 3.38386718 0.24788179 7.03184949 -0.4375 10.625 C-0.58509766 11.42679688 -0.73269531 12.22859375 -0.88476562 13.0546875 C-1.2506507 15.03754855 -1.62457121 17.01892377 -2 19 C-2.66 19 -3.32 19 -4 19 C-4.04898438 19.66386719 -4.09796875 20.32773438 -4.1484375 21.01171875 C-4.89103691 29.78207381 -4.89103691 29.78207381 -7 34 C-7.66 34 -8.32 34 -9 34 C-8.95875 35.134375 -8.9175 36.26875 -8.875 37.4375 C-8.86810059 41.36326212 -9.55397114 44.81640399 -10.48828125 48.61328125 C-11.36405322 52.69798869 -11.67005162 56.84091383 -12 61 C-12.66 61 -13.32 61 -14 61 C-14 68.92 -14 76.84 -14 85 C-13.34 85 -12.68 85 -12 85 C-12 92.26 -12 99.52 -12 107 C-14.33325822 102.33348356 -14.91682409 98.30376509 -15.625 93.1875 C-15.75543701 92.24551758 -15.88587402 91.30353516 -16.02026367 90.33300781 C-17.80585522 76.64929647 -16.88640975 63.60573033 -15 50 C-14.855625 48.87722656 -14.71125 47.75445312 -14.5625 46.59765625 C-12.86055307 34.3041289 -9.95994685 22.3944725 -5 11 C-4.2667506 9.1474441 -3.53753861 7.29328476 -2.8125 5.4375 C-1.12307692 1.12307692 -1.12307692 1.12307692 0 0 Z " fill="#CDE0F8" transform="translate(120,211)"/>
<path d="M0 0 C0.7950293 0.07839111 1.59005859 0.15678223 2.40917969 0.23754883 C4.34534844 0.45810628 6.26916832 0.78236523 8.1875 1.125 C8.6825 2.115 8.6825 2.115 9.1875 3.125 C8.1975 3.125 7.2075 3.125 6.1875 3.125 C6.1875 3.785 6.1875 4.445 6.1875 5.125 C7.1775 5.455 8.1675 5.785 9.1875 6.125 C8.83125187 12.65621574 7.22924217 17.87400344 3.1875 23.125 C1.87575343 23.83319713 0.54401891 24.50687489 -0.8125 25.125 C-1.4962045 26.44967746 -2.16214186 27.78363633 -2.8125 29.125 C-6.24107143 32.125 -6.24107143 32.125 -8.8125 32.125 C-9.1425 33.115 -9.4725 34.105 -9.8125 35.125 C-12.7825 35.62 -12.7825 35.62 -15.8125 36.125 C-15.8125 36.785 -15.8125 37.445 -15.8125 38.125 C-16.8025 38.125 -17.7925 38.125 -18.8125 38.125 C-19.1425 38.785 -19.4725 39.445 -19.8125 40.125 C-20.4725 39.795 -21.1325 39.465 -21.8125 39.125 C-20.63451148 35.59103445 -19.95901295 35.35365981 -16.875 33.5 C-8.31262334 27.97325131 -1.64681809 21.61814179 3.8125 12.99609375 C4.26625 12.37863281 4.72 11.76117188 5.1875 11.125 C5.8475 11.125 6.5075 11.125 7.1875 11.125 C7.1875 9.475 7.1875 7.825 7.1875 6.125 C6.1975 6.125 5.2075 6.125 4.1875 6.125 C4.1875 5.465 4.1875 4.805 4.1875 4.125 C-7.0325 3.465 -18.2525 2.805 -29.8125 2.125 C-29.8125 1.465 -29.8125 0.805 -29.8125 0.125 C-19.89387459 -1.7310302 -9.97327193 -1.0376413 0 0 Z " fill="#DCEBFD" transform="translate(261.8125,331.875)"/>
<path d="M0 0 C5.94 0.33 11.88 0.66 18 1 C18 1.66 18 2.32 18 3 C12.39 2.67 6.78 2.34 1 2 C3.3393199 7.8838823 3.3393199 7.8838823 8.26171875 11.16796875 C9.06222656 11.50441406 9.86273438 11.84085937 10.6875 12.1875 C11.49574219 12.53167969 12.30398437 12.87585938 13.13671875 13.23046875 C13.75160156 13.48441406 14.36648437 13.73835938 15 14 C15 14.66 15 15.32 15 16 C19.29 16.33 23.58 16.66 28 17 C28 17.66 28 18.32 28 19 C42.52377027 18.31945745 42.52377027 18.31945745 57 17 C57 16.34 57 15.68 57 15 C56.34 14.67 55.68 14.34 55 14 C56.32 14 57.64 14 59 14 C59 14.99 59 15.98 59 17 C61.64 17 64.28 17 67 17 C65.66666667 17.66666667 64.33333333 18.33333333 63 19 C62.37456299 19.34047363 61.74912598 19.68094727 61.10473633 20.03173828 C54.01919405 23.29136717 44.43336938 22.15090664 36.8125 22.125 C35.66330078 22.12886719 34.51410156 22.13273437 33.33007812 22.13671875 C32.21697266 22.13542969 31.10386719 22.13414062 29.95703125 22.1328125 C28.95647705 22.13168457 27.95592285 22.13055664 26.92504883 22.12939453 C23.88112247 21.99474125 20.99251197 21.55996647 18 21 C18 20.34 18 19.68 18 19 C16.7934375 18.9071875 16.7934375 18.9071875 15.5625 18.8125 C10.8364549 17.73463007 7.12486573 15.48408581 3 13 C2.34 14.32 1.68 15.64 1 17 C0.67 11.39 0.34 5.78 0 0 Z " fill="#9FBFE4" transform="translate(116,298)"/>
<path d="M0 0 C0 4.29286955 -2.47506349 6.55101807 -5.0625 9.75 C-5.56692627 10.38035156 -6.07135254 11.01070313 -6.59106445 11.66015625 C-10.14362558 16.05212432 -13.73598772 20.27649632 -18 24 C-18.61101562 24.54140625 -19.22203125 25.0828125 -19.8515625 25.640625 C-24.82767581 29.72460645 -29.76553396 31.54358785 -36 33 C-36 32.01 -36 31.02 -36 30 C-34.09375 28.203125 -34.09375 28.203125 -31.5 26.25 C-23.41419999 20.01173116 -15.89681254 13.35588872 -9 5.8125 C-6.24878973 3.31921569 -3.26749191 1.75941872 0 0 Z " fill="#DCEAFC" transform="translate(290,361)"/>
<path d="M0 0 C0.33 0 0.66 0 1 0 C0.53802521 6.91369167 -0.67507228 13.47692822 -2.28125 20.21484375 C-4.56895722 32.26260623 -4.11673123 44.47728752 -4.0625 56.6875 C-4.05747557 58.66080616 -4.05291433 60.63411355 -4.04882812 62.60742188 C-4.03789588 67.40497885 -4.0206831 72.20247556 -4 77 C-8.9872283 72.0127717 -8.24388191 63.97232391 -8.27575684 57.35299683 C-8.274197 55.90581494 -8.26913245 54.45863301 -8.26074219 53.01147461 C-8.25010911 50.83483457 -8.26063244 48.65903538 -8.2734375 46.48242188 C-8.28599458 34.86563959 -6.94177747 23.76149186 -4 12.5 C-3.835 11.83742187 -3.67 11.17484375 -3.5 10.4921875 C-2.57676495 6.87137504 -1.47842453 3.43205695 0 0 Z " fill="#82A1D1" transform="translate(96,233)"/>
<path d="M0 0 C2.475 0.495 2.475 0.495 5 1 C5 1.99 5 2.98 5 4 C5.66 4 6.32 4 7 4 C7 5.32 7 6.64 7 8 C6.34 8 5.68 8 5 8 C5 8.99 5 9.98 5 11 C4.34 11 3.68 11 3 11 C2.67 13.97 2.34 16.94 2 20 C1.34 20 0.68 20 0 20 C0 21.65 0 23.3 0 25 C-0.66 25 -1.32 25 -2 25 C-2 26.98 -2 28.96 -2 31 C-2.66 31 -3.32 31 -4 31 C-4 31.99 -4 32.98 -4 34 C-5.98 34.495 -5.98 34.495 -8 35 C-7.34 33.35 -6.68 31.7 -6 30 C-5.34 30 -4.68 30 -4 30 C-3.34 26.7 -2.68 23.4 -2 20 C-3.32 20 -4.64 20 -6 20 C-6 19.34 -6 18.68 -6 18 C-6.886875 17.855625 -7.77375 17.71125 -8.6875 17.5625 C-10.49838399 17.2549914 -12.3079341 16.92588899 -14.09375 16.49609375 C-18.31626994 15.77531414 -22.53684119 15.66989373 -26.8125 15.5 C-32.93109906 15.25361346 -38.93268972 14.84561816 -45 14 C-45 13.67 -45 13.34 -45 13 C-12.27932197 12.38083142 -12.27932197 12.38083142 0 16 C0.04898438 15.41992188 0.09796875 14.83984375 0.1484375 14.2421875 C0.59649405 9.56076908 1.298021 5.42514541 3 1 C2.01 0.67 1.02 0.34 0 0 Z " fill="#ABCEED" transform="translate(280,300)"/>
<path d="M0 0 C0 3 0 3 -1 6 C-2.07378906 6.18175781 -3.14757812 6.36351562 -4.25390625 6.55078125 C-5.69018289 6.80424183 -7.12637648 7.05817328 -8.5625 7.3125 C-9.26697266 7.43044922 -9.97144531 7.54839844 -10.69726562 7.66992188 C-14.22053103 8.30313547 -16.94921938 8.97482723 -20.19140625 10.58203125 C-25.56666811 13.04080529 -31.58982291 12.43147136 -37.375 12.375 C-38.55578125 12.38660156 -39.7365625 12.39820313 -40.953125 12.41015625 C-47.87628234 12.38702766 -53.62656153 11.73821801 -60 9 C-60.93972656 8.61457031 -61.87945312 8.22914063 -62.84765625 7.83203125 C-63.57855469 7.49558594 -64.30945313 7.15914063 -65.0625 6.8125 C-65.81660156 6.46832031 -66.57070312 6.12414062 -67.34765625 5.76953125 C-67.89292969 5.51558594 -68.43820313 5.26164062 -69 5 C-65.82184788 3.94296493 -64.23251613 4.02303764 -61.1875 5.375 C-53.83609052 8.6187147 -45.88026688 8.18268321 -38 8.1875 C-36.94554687 8.19974609 -35.89109375 8.21199219 -34.8046875 8.22460938 C-29.07422939 8.23538091 -24.43245481 7.76919026 -19 6 C-16.34765625 5.8046875 -16.34765625 5.8046875 -14.0625 5.875 C-12.90427734 5.90207031 -12.90427734 5.90207031 -11.72265625 5.9296875 C-10.86994141 5.96449219 -10.86994141 5.96449219 -10 6 C-10 5.34 -10 4.68 -10 4 C-9.01 4 -8.02 4 -7 4 C-7 3.34 -7 2.68 -7 2 C-4.69 1.34 -2.38 0.68 0 0 Z " fill="#97C6F2" transform="translate(238,371)"/>
<path d="M0 0 C6.47309667 8.63079556 9.29798074 18.2453024 8 29 C7 30 7 30 4.125 30.3125 C1 30 1 30 -0.71484375 28.37109375 C-2.41687211 25.2308773 -2.10797292 23.26668261 -1.6875 19.75 C-1.56761719 18.67234375 -1.44773438 17.5946875 -1.32421875 16.484375 C-1.21722656 15.66453125 -1.11023438 14.8446875 -1 14 C-0.34 14 0.32 14 1 14 C0.67 9.38 0.34 4.76 0 0 Z " fill="#D5E4F5" transform="translate(226,202)"/>
<path d="M0 0 C0.66 0.99 1.32 1.98 2 3 C0.82647601 8.47644526 -2.20847947 13.20540367 -5 18 C-5.66 18 -6.32 18 -7 18 C-7.12375 18.763125 -7.2475 19.52625 -7.375 20.3125 C-8 23 -8 23 -10 26 C-10.66 26 -11.32 26 -12 26 C-12 26.66 -12 27.32 -12 28 C-12.66 28 -13.32 28 -14 28 C-14.33 28.66 -14.66 29.32 -15 30 C-15.99 30 -16.98 30 -18 30 C-17.505 28.515 -17.505 28.515 -17 27 C-16.34 27 -15.68 27 -15 27 C-14.9175 26.13375 -14.835 25.2675 -14.75 24.375 C-13.88642716 20.48892222 -12.44749984 18.11499979 -10 15 C-9.34 15 -8.68 15 -8 15 C-7.79375 14.195625 -7.5875 13.39125 -7.375 12.5625 C-5.57139638 7.889527 -2.87884691 4.07383996 0 0 Z " fill="#E1EDFC" transform="translate(160,137)"/>
<path d="M0 0 C5.00727683 0.51799415 9.22322933 1.3738653 14 3 C16.33177975 3.34403308 18.66487041 3.67949202 21 4 C21.33 4.33 21.66 4.66 22 5 C24.3452768 5.10603645 26.65420884 5.14002508 29 5.125 C29.72952881 5.12306641 30.45905762 5.12113281 31.21069336 5.11914062 C42.14705592 5.03833836 53.07612907 4.49516281 64 4 C50.26196454 11.05922564 30.635579 9.04359923 16 6 C14.82050781 5.77054687 13.64101562 5.54109375 12.42578125 5.3046875 C2.63136634 3.25745006 2.63136634 3.25745006 0 0 Z " fill="#668EC9" transform="translate(161,400)"/>
<path d="M0 0 C0.33 0 0.66 0 1 0 C1.33 2.31 1.66 4.62 2 7 C2.66 7 3.32 7 4 7 C4.19335938 8.09699219 4.38671875 9.19398438 4.5859375 10.32421875 C4.84868175 11.77869582 5.11171801 13.23312017 5.375 14.6875 C5.50132813 15.40873047 5.62765625 16.12996094 5.7578125 16.87304688 C6.48006495 20.82737903 7.49426473 24.26184852 9 28 C9 29.32 9 30.64 9 32 C9.66 32 10.32 32 11 32 C11.31453125 32.79664063 11.6290625 33.59328125 11.953125 34.4140625 C14.21260535 40.00831807 16.37249184 45.16332246 20 50 C19.67 50.66 19.34 51.32 19 52 C10.45620006 46.87372003 8.32436159 35.32069428 5.3125 26.4375 C5.0148877 25.56359619 4.71727539 24.68969238 4.41064453 23.78930664 C1.8597306 16.05906691 -0.43220587 8.2119115 0 0 Z " fill="#B1C7E6" transform="translate(89,303)"/>
<path d="M0 0 C2 3 2 3 2 6 C0.68 6 -0.64 6 -2 6 C-2.33 8.64 -2.66 11.28 -3 14 C-3.66 14 -4.32 14 -5 14 C-5 14.66 -5 15.32 -5 16 C-5.66 16 -6.32 16 -7 16 C-7.04898438 16.62648437 -7.09796875 17.25296875 -7.1484375 17.8984375 C-7.22320312 18.71570313 -7.29796875 19.53296875 -7.375 20.375 C-7.44460937 21.18710938 -7.51421875 21.99921875 -7.5859375 22.8359375 C-8 25 -8 25 -10 27 C-10.71408334 28.98356483 -11.38617742 30.98315437 -12 33 C-12.66 33 -13.32 33 -14 33 C-14.33 35.64 -14.66 38.28 -15 41 C-15.66 41 -16.32 41 -17 41 C-17.33 41.99 -17.66 42.98 -18 44 C-18 43.34 -18 42.68 -18 42 C-18.66 42 -19.32 42 -20 42 C-18.41766174 36.44251929 -16.4432655 31.89768382 -13.25390625 27.08984375 C-11.44204149 24.07006914 -10.28479047 20.8732956 -9.03515625 17.58984375 C-6.59015664 11.47273151 -3.52426559 5.56462987 0 0 Z " fill="#C7DAF1" transform="translate(141,168)"/>
<path d="M0 0 C0.33 0.66 0.66 1.32 1 2 C0.36474424 3.67889021 -0.30686092 5.34416775 -1 7 C-1.36871088 8.65919896 -1.71281674 10.3247643 -2 12 C-2.66 12 -3.32 12 -4 12 C-4 12.66 -4 13.32 -4 14 C-4.66 14 -5.32 14 -6 14 C-6.2475 14.70125 -6.495 15.4025 -6.75 16.125 C-8.17180238 19.39514548 -9.87246288 22.141122 -12 25 C-12.66 25 -13.32 25 -14 25 C-14.33 25.66 -14.66 26.32 -15 27 C-15 26.34 -15 25.68 -15 25 C-15.66 25 -16.32 25 -17 25 C-14.20983667 19.20504539 -10.67695315 14.02160722 -6.9375 8.8125 C-6.49083984 8.18408203 -6.04417969 7.55566406 -5.58398438 6.90820312 C-3.82972926 4.4564415 -2.13560474 2.13560474 0 0 Z " fill="#DFECFB" transform="translate(178,112)"/>
<path d="M0 0 C1.32 0 2.64 0 4 0 C4 0.99 4 1.98 4 3 C6.64 3 9.28 3 12 3 C10.66666667 3.66666667 9.33333333 4.33333333 8 5 C7.17580566 5.52376221 7.17580566 5.52376221 6.33496094 6.05810547 C3.04427113 7.38552927 -0.11917653 7.2466935 -3.609375 7.1953125 C-4.33618469 7.1924826 -5.06299438 7.18965271 -5.81182861 7.18673706 C-8.12472251 7.17557523 -10.43722388 7.15047851 -12.75 7.125 C-14.32160898 7.11496501 -15.89322404 7.10584006 -17.46484375 7.09765625 C-21.31004622 7.07564904 -25.15495664 7.04114715 -29 7 C-29.33 6.34 -29.66 5.68 -30 5 C-29.38592285 4.97494385 -28.7718457 4.9498877 -28.13916016 4.92407227 C-25.30097366 4.80654736 -22.4629956 4.68454474 -19.625 4.5625 C-18.17673828 4.50352539 -18.17673828 4.50352539 -16.69921875 4.44335938 C-10.43737688 4.17019178 -4.22902691 3.69676872 2 3 C2 2.34 2 1.68 2 1 C1.34 0.67 0.68 0.34 0 0 Z " fill="#BED8F1" transform="translate(171,312)"/>
<path d="M0 0 C2.27176166 2.27176166 2.60182 3.52826936 3.4375 6.5859375 C3.81902222 7.97280762 3.81902222 7.97280762 4.20825195 9.38769531 C4.46952881 10.37350586 4.73080566 11.35931641 5 12.375 C5.2683667 13.38143555 5.5367334 14.38787109 5.81323242 15.42480469 C8.45681361 25.50381438 10.0521376 35.23754742 10.75 45.625 C10.80712158 46.42067383 10.86424316 47.21634766 10.9230957 48.03613281 C11.03216153 50.02125995 11.0251111 52.01203759 11 54 C10.34 54.66 9.68 55.32 9 56 C8.95101563 54.74445313 8.90203125 53.48890625 8.8515625 52.1953125 C8.50191235 37.61836243 8.50191235 37.61836243 4.53515625 23.74609375 C2.82895375 19.85557707 2.02928916 15.98397791 1.3125 11.8125 C1.18294922 11.11447266 1.05339844 10.41644531 0.91992188 9.69726562 C0.32481107 6.38794577 0 3.37554375 0 0 Z " fill="#A8C2E2" transform="translate(300,226)"/>
<path d="M0 0 C0.99 0.495 0.99 0.495 2 1 C2 1.66 2 2.32 2 3 C3.11375 3.2475 3.11375 3.2475 4.25 3.5 C7.81467899 5.44437036 8.42066985 7.48879767 10.01953125 11.09765625 C11.23791897 13.46161968 12.78775454 14.57784221 15 16 C15 16.66 15 17.32 15 18 C15.66 18 16.32 18 17 18 C17.2475 18.7425 17.495 19.485 17.75 20.25 C18.85126021 23.09997265 18.85126021 23.09997265 21.125 25.125 C23 27 23 27 23 30 C21 30 21 30 19.5546875 28.6015625 C17.69207629 26.40974558 15.83646517 24.21382102 14 22 C13.33097656 21.2059375 12.66195312 20.411875 11.97265625 19.59375 C0 5.0702975 0 5.0702975 0 0 Z " fill="#DDE8F5" transform="translate(104,351)"/>
<path d="M0 0 C4 4.75 4 4.75 4 7 C4.66 7 5.32 7 6 7 C9 13.75 9 13.75 9 16 C9.66 16 10.32 16 11 16 C11.33 16.66 11.66 17.32 12 18 C12.99 18.33 13.98 18.66 15 19 C15.33 19.99 15.66 20.98 16 22 C16.66 22.33 17.32 22.66 18 23 C21 29.23076923 21 29.23076923 21 33 C17.19047619 28.42857143 17.19047619 28.42857143 16 25.75 C15.1304373 23.78571015 15.1304373 23.78571015 12.875 23.25 C12.25625 23.1675 11.6375 23.085 11 23 C10.67 23.66 10.34 24.32 10 25 C6.91532502 19.60540561 5.44356295 15.20988129 5 9 C3.68 8.67 2.36 8.34 1 8 C0.67 5.36 0.34 2.72 0 0 Z " fill="#469EE8" transform="translate(202,151)"/>
<path d="M0 0 C0 0.33 0 0.66 0 1 C-11.72098848 1.10709533 -23.31556633 0.99140649 -35 0 C-35 -0.66 -35 -1.32 -35 -2 C-24.47906875 -4.00854142 -9.89161304 -4.94580652 0 0 Z " fill="#D1E5F8" transform="translate(267,334)"/>
<path d="M0 0 C-0.99 0.495 -0.99 0.495 -2 1 C-2 1.66 -2 2.32 -2 3 C-3.32 3 -4.64 3 -6 3 C-6 3.66 -6 4.32 -6 5 C-8.0829243 5.64715133 -10.16635539 6.29267166 -12.25 6.9375 C-13.41015625 7.29714844 -14.5703125 7.65679687 -15.765625 8.02734375 C-19.95984348 9.28864858 -23.35850239 10.12708085 -27.75 10.0625 C-28.54921875 10.05347656 -29.3484375 10.04445313 -30.171875 10.03515625 C-30.77515625 10.02355469 -31.3784375 10.01195312 -32 10 C-32 9.34 -32 8.68 -32 8 C-30.66195312 7.80083984 -30.66195312 7.80083984 -29.296875 7.59765625 C-28.12640625 7.42105469 -26.9559375 7.24445313 -25.75 7.0625 C-24.00976562 6.80146484 -24.00976562 6.80146484 -22.234375 6.53515625 C-19.76893039 6.1272264 -17.40575438 5.66098697 -15 5 C-15 4.34 -15 3.68 -15 3 C-13.68 3 -12.36 3 -11 3 C-11 2.34 -11 1.68 -11 1 C-7.32589215 -0.17571451 -3.83070817 -0.07366746 0 0 Z " fill="#C5DCF1" transform="translate(199,327)"/>
<path d="M0 0 C5.08335725 0.15404113 7.35754718 3.02068432 10.64453125 6.50390625 C11.31548828 7.24447266 11.31548828 7.24447266 12 8 C11.67 8.66 11.34 9.32 11 10 C10.51789063 9.50628906 10.03578125 9.01257813 9.5390625 8.50390625 C8.59160156 7.54291016 8.59160156 7.54291016 7.625 6.5625 C6.99851563 5.92441406 6.37203125 5.28632812 5.7265625 4.62890625 C4.08276939 2.92117824 4.08276939 2.92117824 2 2 C1.690625 3.051875 1.690625 3.051875 1.375 4.125 C-0.80754162 8.68849612 -4.12321062 11.92084611 -8.5 14.4375 C-12.06348279 16.66467674 -14.39950165 19.73820654 -17 23 C-17 18.96669233 -15.55621053 18.13246261 -12.8125 15.25 C-10.00009628 12.23418343 -7.37620865 9.28981096 -5.0625 5.875 C-4.381875 4.92625 -3.70125 3.9775 -3 3 C-2.34 3 -1.68 3 -1 3 C-0.67 2.01 -0.34 1.02 0 0 Z " fill="#839ECC" transform="translate(197,66)"/>
<path d="M0 0 C1.95714535 3.91429071 0.01550733 8.90254602 -1 13 C-2.5 16.1875 -2.5 16.1875 -4 18 C-4.66 18 -5.32 18 -6 18 C-6.33 18.99 -6.66 19.98 -7 21 C-7.99 21.33 -8.98 21.66 -10 22 C-10.33 22.66 -10.66 23.32 -11 24 C-14.0625 24.625 -14.0625 24.625 -17 25 C-16.67 24.34 -16.34 23.68 -16 23 C-15.34 23 -14.68 23 -14 23 C-14 22.34 -14 21.68 -14 21 C-13.34 21 -12.68 21 -12 21 C-11.73316406 20.4225 -11.46632812 19.845 -11.19140625 19.25 C-9.58169202 16.21001509 -7.48118317 13.68060094 -5.33984375 11 C-3.97763778 8.96661966 -3.43221427 7.39051844 -3 5 C-2.34 5 -1.68 5 -1 5 C-0.67 3.35 -0.34 1.7 0 0 Z " fill="#CADEF7" transform="translate(241,246)"/>
<path d="M0 0 C0 4.29343584 -2.47566351 6.55012732 -5.0625 9.75 C-5.56112549 10.37600098 -6.05975098 11.00200195 -6.57348633 11.64697266 C-10.12950805 16.05885045 -13.85336436 20.12980674 -18 24 C-18.66 23.67 -19.32 23.34 -20 23 C-18.38405168 20.95880212 -16.7143618 18.95927063 -15 17 C-14.34 17 -13.68 17 -13 17 C-12.90203125 16.39671875 -12.8040625 15.7934375 -12.703125 15.171875 C-11.18416801 7.05331179 -11.18416801 7.05331179 -7 4 C-4.70033054 2.58063412 -2.38228275 1.28276764 0 0 Z " fill="#E0ECFA" transform="translate(290,361)"/>
<path d="M0 0 C0.66 0 1.32 0 2 0 C2.03738281 1.21816406 2.07476562 2.43632812 2.11328125 3.69140625 C2.17898117 5.3151329 2.24542709 6.93882949 2.3125 8.5625 C2.33505859 9.36236328 2.35761719 10.16222656 2.38085938 10.98632812 C2.62295359 16.37842659 3.68784674 20.13484419 6 25 C6.4054103 27.32189536 6.76072994 29.65515344 7 32 C7.66 32 8.32 32 9 32 C10.45780584 38.01344909 10.74225803 43.34409281 8 49 C7.34 48.67 6.68 48.34 6 48 C6.495 47.505 6.495 47.505 7 47 C7.23527773 44.65012738 7.41386417 42.29443961 7.5625 39.9375 C7.64628906 38.64714844 7.73007813 37.35679687 7.81640625 36.02734375 C7.87699219 35.02832031 7.93757812 34.02929688 8 33 C7.34 33 6.68 33 6 33 C6 32.01 6 31.02 6 30 C5.34 30 4.68 30 4 30 C3.86722656 29.28972656 3.73445312 28.57945312 3.59765625 27.84765625 C3.42105469 26.92855469 3.24445313 26.00945312 3.0625 25.0625 C2.80146484 23.68771484 2.80146484 23.68771484 2.53515625 22.28515625 C2.22285012 20.04710156 2.22285012 20.04710156 1 19 C0.57096604 16.37290166 0.20098584 13.76502614 -0.125 11.125 C-0.22425781 10.39152344 -0.32351562 9.65804687 -0.42578125 8.90234375 C-0.84825906 5.54088986 -1.08480387 3.25441161 0 0 Z " fill="#87CFF7" transform="translate(180,196)"/>
<path d="M0 0 C0.66 0 1.32 0 2 0 C2 0.66 2 1.32 2 2 C2.66 2 3.32 2 4 2 C4.84324672 3.578076 5.67423918 5.1627042 6.5 6.75 C7.19609375 8.07257813 7.19609375 8.07257813 7.90625 9.421875 C9 12 9 12 9 16 C9.66 16 10.32 16 11 16 C11 16.99 11 17.98 11 19 C11.66 19 12.32 19 13 19 C12.67 20.98 12.34 22.96 12 25 C12.66 25 13.32 25 14 25 C15.15664737 30.48269069 15.11416255 35.80339274 15.0625 41.375 C15.05798828 42.30183594 15.05347656 43.22867188 15.04882812 44.18359375 C15.03711574 46.45579709 15.02071372 48.72786388 15 51 C14.34 51 13.68 51 13 51 C13 42.75 13 34.5 13 26 C12.34 26 11.68 26 11 26 C10.67 23.03 10.34 20.06 10 17 C9.34 17 8.68 17 8 17 C8 16.01 8 15.02 8 14 C7.34 14 6.68 14 6 14 C5.566875 12.948125 5.13375 11.89625 4.6875 10.8125 C3.68434768 8.45270359 2.64056505 6.40094175 1.3125 4.1875 C0 2 0 2 0 0 Z " fill="#BFD9F2" transform="translate(229,192)"/>
<path d="M0 0 C1.65 0 3.3 0 5 0 C-4.50394549 8.12398151 -23.27573158 5.50021842 -35 5 C-38.01492831 4.73714614 -40.99737434 4.38614013 -44 4 C-44 3.34 -44 2.68 -44 2 C-34.94609707 1.8389622 -34.94609707 1.8389622 -31.0625 2.5 C-25.68941525 3.37723833 -19.90612791 3.59886661 -14.5546875 2.49609375 C-11.54939378 1.91249696 -8.74643041 1.90388538 -5.6875 1.9375 C-4.08455078 1.95103516 -4.08455078 1.95103516 -2.44921875 1.96484375 C-1.64097656 1.97644531 -0.83273438 1.98804688 0 2 C0 1.34 0 0.68 0 0 Z " fill="#49B3F2" transform="translate(179,331)"/>
<path d="M0 0 C4.05269518 -0.05017623 8.10526519 -0.08607843 12.15820312 -0.10986328 C13.53128212 -0.11979919 14.90434067 -0.13335261 16.27734375 -0.15087891 C25.07709967 -0.2602326 33.37541997 0.19660479 42 2 C40.6796875 3.515625 40.6796875 3.515625 39 5 C36.199525 4.75648044 33.63991162 4.15847718 30.91796875 3.484375 C26.69029901 2.78259314 22.46540731 2.66998307 18.1875 2.5 C12.06890094 2.25361346 6.06731028 1.84561816 0 1 C0 0.67 0 0.34 0 0 Z " fill="#CDE2F5" transform="translate(235,313)"/>
<path d="M0 0 C0.66 0 1.32 0 2 0 C2.18175781 0.71027344 2.36351562 1.42054688 2.55078125 2.15234375 C2.80214844 3.07144531 3.05351562 3.99054688 3.3125 4.9375 C3.55613281 5.85402344 3.79976562 6.77054688 4.05078125 7.71484375 C4.36402344 8.46894531 4.67726562 9.22304687 5 10 C5.99 10.33 6.98 10.66 8 11 C9.1875 14.0625 9.1875 14.0625 10 17 C9.01 17.33 8.02 17.66 7 18 C7 20.31 7 22.62 7 25 C1.19280422 19.19280422 0.35694227 7.90627133 0 0 Z " fill="#0179DE" transform="translate(199,149)"/>
<path d="M0 0 C0 0.66 0 1.32 0 2 C1.98 2 3.96 2 6 2 C6 2.33 6 2.66 6 3 C3.69 3 1.38 3 -1 3 C-1 3.66 -1 4.32 -1 5 C-9.91 5 -18.82 5 -28 5 C-28 4.67 -28 4.34 -28 4 C-20.74 3.67 -13.48 3.34 -6 3 C-14.91 2.67 -23.82 2.34 -33 2 C-33 1.67 -33 1.34 -33 1 C-28.9432275 0.85669424 -24.88642396 0.71430497 -20.82958984 0.57275391 C-19.4503493 0.52450154 -18.07111739 0.47600154 -16.69189453 0.42724609 C-14.70607777 0.35709107 -12.7202267 0.28790901 -10.734375 0.21875 C-9.54038086 0.17685547 -8.34638672 0.13496094 -7.11621094 0.09179688 C-4.74497189 0.02194527 -2.37226766 0 0 0 Z " fill="#8BB5E1" transform="translate(173,353)"/>
<path d="M0 0 C1.4552777 2.9105554 0.63516661 4.95849052 0.0625 8.125 C-0.13214844 9.22070312 -0.32679687 10.31640625 -0.52734375 11.4453125 C-0.68332031 12.28835937 -0.83929688 13.13140625 -1 14 C-1.66 14 -2.32 14 -3 14 C-3.66 16.64 -4.32 19.28 -5 22 C-5.66 22 -6.32 22 -7 22 C-7.12375 22.763125 -7.2475 23.52625 -7.375 24.3125 C-8 27 -8 27 -10 30 C-9.54282171 22.91373657 -7.81523877 17.47701788 -5 11 C-4.26624186 9.14764554 -3.53693035 7.29352229 -2.8125 5.4375 C-1.12307692 1.12307692 -1.12307692 1.12307692 0 0 Z " fill="#A7BFE2" transform="translate(120,211)"/>
<path d="M0 0 C7.3603435 6.6703113 12.61838714 15.28810994 18 23.5625 C18.59699707 24.4740686 18.59699707 24.4740686 19.20605469 25.40405273 C22 29.75957428 22 29.75957428 22 32 C21.34 32 20.68 32 20 32 C18.80415985 30.12671346 17.69281168 28.19910603 16.625 26.25 C14.40920579 22.20885989 12.27920419 19.20749197 9 16 C7.92859358 14.36538483 6.90745775 12.69677943 5.9375 11 C4.49115978 8.4832913 3.08775539 6.11402092 1.31640625 3.8125 C0 2 0 2 0 0 Z " fill="#ABBFDC" transform="translate(239,113)"/>
<path d="M0 0 C-3.58748555 1.09820986 -6.82846874 1.97893476 -10.5625 2.4375 C-14.01094427 2.80808855 -14.01094427 2.80808855 -16.78344727 4.51245117 C-20.43827284 6.20268664 -22.89440858 6.37339885 -26.90234375 6.36328125 C-28.20494141 6.36263672 -29.50753906 6.36199219 -30.84960938 6.36132812 C-31.85737427 6.34888062 -31.85737427 6.34888062 -32.88549805 6.33618164 C-34.92862555 6.31260242 -36.97044278 6.31562937 -39.01367188 6.32226562 C-45.4658207 6.28718227 -50.87173366 5.96485859 -57 4 C-57 3.67 -57 3.34 -57 3 C-55.95972656 3.15984375 -54.91945312 3.3196875 -53.84765625 3.484375 C-47.72672098 4.24427099 -41.59743529 4.22329025 -35.4375 4.25 C-33.64795898 4.2809375 -33.64795898 4.2809375 -31.82226562 4.3125 C-25.29198479 4.3415396 -20.80729479 3.94040242 -15 1 C-11.54296875 0.234375 -11.54296875 0.234375 -8.1875 -0.25 C-7.06730469 -0.42015625 -5.94710937 -0.5903125 -4.79296875 -0.765625 C-2 -1 -2 -1 0 0 Z " fill="#EAF3FE" transform="translate(236,378)"/>
<path d="M0 0 C0.97983761 3.04838368 1.21704816 5.00418914 0 8 C-0.598125 8.53625 -1.19625 9.0725 -1.8125 9.625 C-4.51783056 12.56221604 -5.46828547 15.41000507 -6.8515625 19.1171875 C-8.89216786 24.2395234 -11.47554315 29.10255372 -14 34 C-15 32 -15 32 -14.28515625 29.7421875 C-10.54599462 20.97367429 -6.33045942 12.48884761 -2 4 C-1.33164717 2.66751108 -0.66394141 1.33469248 0 0 Z " fill="#98B0D9" transform="translate(120,177)"/>
<path d="M0 0 C3.90871733 3.43682207 6.11019041 7.36738204 8.5625 11.875 C8.94857422 12.56980469 9.33464844 13.26460937 9.73242188 13.98046875 C10.83708305 15.979021 11.92114252 17.9874274 13 20 C13.91072266 21.67449219 13.91072266 21.67449219 14.83984375 23.3828125 C15.22269531 24.24648437 15.60554688 25.11015625 16 26 C15.67 26.66 15.34 27.32 15 28 C14.38125 27.195625 13.7625 26.39125 13.125 25.5625 C11.25835959 22.96125481 11.25835959 22.96125481 9 22 C8.66666667 20 8.33333333 18 8 16 C7.34 15.67 6.68 15.34 6 15 C6 14.01 6 13.02 6 12 C5.34 12 4.68 12 4 12 C3.51801537 10.75108386 3.03954323 9.50081192 2.5625 8.25 C2.29566406 7.55390625 2.02882813 6.8578125 1.75390625 6.140625 C1.03853307 4.10940997 0.48634348 2.0964709 0 0 Z " fill="#A8BCDD" transform="translate(261,145)"/>
<path d="M0 0 C0.82242188 0.00451172 1.64484375 0.00902344 2.4921875 0.01367188 C4.49482396 0.02531511 6.49742227 0.04324444 8.5 0.0625 C8.995 1.0525 8.995 1.0525 9.5 2.0625 C1.58 2.0625 -6.34 2.0625 -14.5 2.0625 C-14.5 2.7225 -14.5 3.3825 -14.5 4.0625 C-9.55 4.0625 -4.6 4.0625 0.5 4.0625 C0.5 4.3925 0.5 4.7225 0.5 5.0625 C-0.91152344 5.13597656 -0.91152344 5.13597656 -2.3515625 5.2109375 C-4.21941406 5.32308594 -4.21941406 5.32308594 -6.125 5.4375 C-7.35476562 5.50710938 -8.58453125 5.57671875 -9.8515625 5.6484375 C-13.34569338 6.04498769 -16.20291493 6.88767658 -19.5 8.0625 C-22.375 8.1875 -22.375 8.1875 -24.5 8.0625 C-23.901875 7.835625 -23.30375 7.60875 -22.6875 7.375 C-20.27893641 6.20015075 -20.27893641 6.20015075 -19.25 3.5 C-17.5 1.0625 -17.5 1.0625 -13.984375 0.4140625 C-9.32266868 -0.03813772 -4.67937225 -0.04953733 0 0 Z " fill="#82ABD8" transform="translate(246.5,329.9375)"/>
<path d="M0 0 C0.99 0.495 0.99 0.495 2 1 C4.24974161 1.15495763 6.50371536 1.25010928 8.7578125 1.31640625 C9.42086395 1.33718735 10.08391541 1.35796844 10.76705933 1.37937927 C12.88626694 1.44479231 15.005599 1.50372105 17.125 1.5625 C18.56121081 1.60569309 19.99740902 1.64930764 21.43359375 1.69335938 C24.95559594 1.80046499 28.47773825 1.90175575 32 2 C28.69711664 4.20192224 27.72537273 4.23959968 23.89453125 4.1953125 C22.91162109 4.18886719 21.92871094 4.18242187 20.91601562 4.17578125 C19.37977539 4.15064453 19.37977539 4.15064453 17.8125 4.125 C16.77673828 4.11597656 15.74097656 4.10695313 14.67382812 4.09765625 C12.11565315 4.0740786 9.55794252 4.0411703 7 4 C7.33 5.32 7.66 6.64 8 8 C7.34 8 6.68 8 6 8 C5.7525 7.38125 5.505 6.7625 5.25 6.125 C3.79371361 3.64931313 2.62187494 3.04874998 0 2 C0 1.34 0 0.68 0 0 Z " fill="#C7DFF6" transform="translate(138,353)"/>
<path d="M0 0 C0.99 0 1.98 0 3 0 C3 0.99 3 1.98 3 3 C3.99 3.33 4.98 3.66 6 4 C5.01 4.33 4.02 4.66 3 5 C1.33066942 5.6599679 -0.3364521 6.32558869 -2 7 C-2 7.66 -2 8.32 -2 9 C-3.42578125 10.47265625 -3.42578125 10.47265625 -5.3125 12.0625 C-5.92738281 12.58972656 -6.54226562 13.11695312 -7.17578125 13.66015625 C-9 15 -9 15 -12 16 C-10.58861863 11.5092411 -8.37485118 9.21788135 -5 6 C-4.11453651 4.90420648 -3.23939701 3.79998678 -2.375 2.6875 C-1.59125 1.800625 -0.8075 0.91375 0 0 Z " fill="#B3C5E0" transform="translate(198,87)"/>
<path d="M0 0 C0.66 0.33 1.32 0.66 2 1 C1.67 1.99 1.34 2.98 1 4 C0.01 4 -0.98 4 -2 4 C-2 4.66 -2 5.32 -2 6 C-7.70766648 9.11222861 -12.49515567 11.45792964 -19 12 C-19.99 12.495 -19.99 12.495 -21 13 C-20.67 12.01 -20.34 11.02 -20 10 C-16.535 9.505 -16.535 9.505 -13 9 C-13 8.34 -13 7.68 -13 7 C-12.01 7 -11.02 7 -10 7 C-10 6.34 -10 5.68 -10 5 C-6.62902617 3.50178941 -4.79557881 3 -1 3 C-0.67 2.01 -0.34 1.02 0 0 Z " fill="#CFE3F8" transform="translate(231,267)"/>
<path d="M0 0 C3.625 0.375 3.625 0.375 7 1 C7 1.66 7 2.32 7 3 C-2.63862168 5.52816306 -12.11436703 5.18269137 -22 5 C-22 4.34 -22 3.68 -22 3 C-21.40461426 2.98018066 -20.80922852 2.96036133 -20.19580078 2.93994141 C-17.50507847 2.84483874 -14.81514852 2.73510158 -12.125 2.625 C-11.18785156 2.5940625 -10.25070313 2.563125 -9.28515625 2.53125 C-7.94130859 2.47324219 -7.94130859 2.47324219 -6.5703125 2.4140625 C-5.74289551 2.3826416 -4.91547852 2.3512207 -4.06298828 2.31884766 C-1.78013915 2.17400863 -1.78013915 2.17400863 0 0 Z " fill="#355FA5" transform="translate(166,312)"/>
<path d="M0 0 C0.33 0 0.66 0 1 0 C1.144375 1.134375 1.28875 2.26875 1.4375 3.4375 C1.61171478 6.80777201 1.61171478 6.80777201 3 8 C3.24706295 12.4146248 2.64750391 16.27507025 1.625 20.5625 C1.36976563 21.65691406 1.11453125 22.75132812 0.8515625 23.87890625 C0.08188184 26.69989178 -0.8500651 29.315152 -2 32 C-2.33 32 -2.66 32 -3 32 C-3.07654536 27.48382401 -3.10228696 23.40914783 -2 19 C-1.34 19 -0.68 19 0 19 C0 12.73 0 6.46 0 0 Z " fill="#EAF3FE" transform="translate(244,224)"/>
<path d="M0 0 C0.33 0.99 0.66 1.98 1 3 C-3.51253482 7.7632312 -3.51253482 7.7632312 -6.1875 9.0625 C-8.52860931 10.27341861 -9.04071126 11.60177814 -10 14 C-10.99 14 -11.98 14 -13 14 C-13 14.66 -13 15.32 -13 16 C-13.99 16 -14.98 16 -16 16 C-16.33 16.66 -16.66 17.32 -17 18 C-17.66 17.67 -18.32 17.34 -19 17 C-17.81844315 13.45532944 -17.09354608 13.18688817 -14 11.3125 C-8.85606459 8.03458289 -4.45441861 4.14903293 0 0 Z " fill="#A0CCF1" transform="translate(259,354)"/>
<path d="M0 0 C6.15234375 0.5859375 6.15234375 0.5859375 8 1 C8.33 1.66 8.66 2.32 9 3 C8.01 3 7.02 3 6 3 C6 3.66 6 4.32 6 5 C6.99 5.33 7.98 5.66 9 6 C8.14285714 14.57142857 8.14285714 14.57142857 6 18 C5.34 17.34 4.68 16.68 4 16 C3.67 16.66 3.34 17.32 3 18 C2.34 17.67 1.68 17.34 1 17 C2.2739589 14.96166576 3.61061923 12.96147874 5 11 C5.66 11 6.32 11 7 11 C7 9.35 7 7.7 7 6 C6.01 6 5.02 6 4 6 C4 5.34 4 4.68 4 4 C2.35 4 0.7 4 -1 4 C-0.34 3.34 0.32 2.68 1 2 C0.67 1.34 0.34 0.68 0 0 Z " fill="#A4C6E9" transform="translate(262,332)"/>
<path d="M0 0 C0.33 0.66 0.66 1.32 1 2 C1.66 2 2.32 2 3 2 C3.31453125 2.79664063 3.6290625 3.59328125 3.953125 4.4140625 C6.21260535 10.00831807 8.37249184 15.16332246 12 20 C11.67 20.66 11.34 21.32 11 22 C5.2261726 18.53570356 3.20484015 13.09119264 1 7 C0.4361084 4.60448971 0.16418636 2.46279537 0 0 Z " fill="#CADAEF" transform="translate(97,333)"/>
<path d="M0 0 C3.92853871 -0.0751855 7.85678833 -0.12908016 11.78588867 -0.16479492 C13.76561236 -0.1869747 15.74513664 -0.22512997 17.72460938 -0.26367188 C25.64933576 -0.32385967 32.49597769 0.39624418 40 3 C40 3.33 40 3.66 40 4 C37.68715544 3.85973717 35.37472409 3.71264442 33.0625 3.5625 C31.13083984 3.44068359 31.13083984 3.44068359 29.16015625 3.31640625 C26 3 26 3 25 2 C23.14825294 1.84213692 21.2909089 1.74892644 19.43359375 1.68359375 C17.7465332 1.62075195 17.7465332 1.62075195 16.02539062 1.55664062 C14.84138672 1.51732422 13.65738281 1.47800781 12.4375 1.4375 C11.24962891 1.39431641 10.06175781 1.35113281 8.83789062 1.30664062 C5.89205216 1.20016454 2.9461257 1.09815159 0 1 C0 0.67 0 0.34 0 0 Z " fill="#6F8EC4" transform="translate(234,315)"/>
<path d="M0 0 C-3.25413668 3.93208182 -7.05951428 5.9145134 -12 7 C-15 6 -15 6 -17 5 C-17 4.34 -17 3.68 -17 3 C-16.37351563 2.79503906 -15.74703125 2.59007812 -15.1015625 2.37890625 C-14.28429687 2.10949219 -13.46703125 1.84007812 -12.625 1.5625 C-11.81289062 1.29566406 -11.00078125 1.02882813 -10.1640625 0.75390625 C-6.10095156 -0.66158186 -4.3899456 -0.8589024 0 0 Z " fill="#B3D7F1" transform="translate(212,322)"/>
<path d="M0 0 C1 2 1 2 0.0625 5.125 C-0.288125 6.07375 -0.63875 7.0225 -1 8 C-1.66 8 -2.32 8 -3 8 C-3 8.99 -3 9.98 -3 11 C-4.53125 12.60546875 -4.53125 12.60546875 -6.5 14.1875 C-7.1496875 14.71730469 -7.799375 15.24710938 -8.46875 15.79296875 C-8.9740625 16.19128906 -9.479375 16.58960938 -10 17 C-10.66 16.67 -11.32 16.34 -12 16 C-10.37730453 13.70667025 -8.75196361 11.41529864 -7.125 9.125 C-6.66480469 8.47402344 -6.20460937 7.82304688 -5.73046875 7.15234375 C-5.28574219 6.52714844 -4.84101563 5.90195313 -4.3828125 5.2578125 C-3.97434082 4.6817627 -3.56586914 4.10571289 -3.14501953 3.51220703 C-2 2 -2 2 0 0 Z " fill="#A6BDDE" transform="translate(178,112)"/>
<path d="M0 0 C5.00727683 0.51799415 9.22322933 1.3738653 14 3 C16.33247761 3.33926947 18.66585471 3.67240066 21 4 C23.36148517 4.59498357 25.6701185 5.28677097 28 6 C28 6.33 28 6.66 28 7 C22.08646512 7.19421575 16.92642407 6.58044274 11.1875 5.1875 C10.43791016 5.02185547 9.68832031 4.85621094 8.91601562 4.68554688 C2.25276164 3.10756447 2.25276164 3.10756447 0 0 Z " fill="#86A7D6" transform="translate(161,400)"/>
<path d="M0 0 C0.66 0.33 1.32 0.66 2 1 C0.68 4.63 -0.64 8.26 -2 12 C-2.66 12 -3.32 12 -4 12 C-4.33 12.99 -4.66 13.98 -5 15 C-5.82638376 12.10765685 -6 10.11257569 -6 7 C-6.66 6.67 -7.32 6.34 -8 6 C-8 5.34 -8 4.68 -8 4 C-5.36 3.67 -2.72 3.34 0 3 C0 2.01 0 1.02 0 0 Z " fill="#DDEBFB" transform="translate(276,331)"/>
<path d="M0 0 C3.38944685 1.69472343 4.44510619 5.46313173 6.0625 8.75 C6.42666016 9.46671875 6.79082031 10.1834375 7.16601562 10.921875 C8.99150185 14.59309315 10.47328901 17.88355101 11 22 C8.37997275 19.62949916 6.64180091 17.12723983 5 14 C5 13.01 5 12.02 5 11 C4.01 11 3.02 11 2 11 C0.80712589 7.12315913 0 4.08378077 0 0 Z " fill="#ADC0DD" transform="translate(277,173)"/>
<path d="M0 0 C2.65132851 2.65132851 3.20055719 5.5358107 4.125 9.0625 C4.30385742 9.73482666 4.48271484 10.40715332 4.66699219 11.09985352 C5.96467376 16.24546991 6.3697443 20.73114378 6 26 C4.1463549 23.21953235 3.58580942 21.84381975 2.9296875 18.69140625 C2.75566406 17.86189453 2.58164062 17.03238281 2.40234375 16.17773438 C2.14130859 14.88319336 2.14130859 14.88319336 1.875 13.5625 C1.69324219 12.70333984 1.51148438 11.84417969 1.32421875 10.95898438 C0.54180648 7.16752042 0 3.90047178 0 0 Z " fill="#7999D0" transform="translate(300,226)"/>
<path d="M0 0 C2.97 0.33 5.94 0.66 9 1 C9 1.66 9 2.32 9 3 C8.01 3.495 8.01 3.495 7 4 C14.92 4.33 22.84 4.66 31 5 C31 5.33 31 5.66 31 6 C26.79168132 6.02914348 22.58338878 6.04684712 18.375 6.0625 C16.59029297 6.07506836 16.59029297 6.07506836 14.76953125 6.08789062 C13.61582031 6.09111328 12.46210938 6.09433594 11.2734375 6.09765625 C9.68668213 6.10551147 9.68668213 6.10551147 8.06787109 6.11352539 C4.96637654 5.99875578 2.04652343 5.57696282 -1 5 C-1 4.67 -1 4.34 -1 4 C0.98 4 2.96 4 5 4 C5 3.34 5 2.68 5 2 C3.35 1.67 1.7 1.34 0 1 C0 0.67 0 0.34 0 0 Z " fill="#7EBBEC" transform="translate(135,314)"/>
<path d="M0 0 C1.34374179 4.03122538 0.4530301 6.05606115 -1 10 C-2.9375 12.25 -2.9375 12.25 -5 14 C-5.5775 14.5775 -6.155 15.155 -6.75 15.75 C-7.1625 16.1625 -7.575 16.575 -8 17 C-8 10.59845756 -4.19147353 4.64055998 0 0 Z " fill="#E5F0FE" transform="translate(185,103)"/>
<path d="M0 0 C-0.66 0.66 -1.32 1.32 -2 2 C-1.67 2.66 -1.34 3.32 -1 4 C-6.75 7 -6.75 7 -9 7 C-9 6.34 -9 5.68 -9 5 C-12.63 5.66 -16.26 6.32 -20 7 C-19.67 6.34 -19.34 5.68 -19 5 C-16.93359375 4.5859375 -16.93359375 4.5859375 -14.4375 4.375 C-13.61121094 4.30023438 -12.78492188 4.22546875 -11.93359375 4.1484375 C-10.97646484 4.07496094 -10.97646484 4.07496094 -10 4 C-10 3.34 -10 2.68 -10 2 C-8.71211992 1.46987262 -7.41953322 0.9511671 -6.125 0.4375 C-5.40570313 0.14746094 -4.68640625 -0.14257812 -3.9453125 -0.44140625 C-2 -1 -2 -1 0 0 Z " fill="#9DBADD" transform="translate(203,344)"/>
<path d="M0 0 C-1.65 0.33 -3.3 0.66 -5 1 C-5 1.66 -5 2.32 -5 3 C-11.29928315 7.14426523 -11.29928315 7.14426523 -14.125 6.5625 C-14.74375 6.376875 -15.3625 6.19125 -16 6 C-16 6.66 -16 7.32 -16 8 C-18.97 8.66 -21.94 9.32 -25 10 C-24.67 9.34 -24.34 8.68 -24 8 C-23.01 8 -22.02 8 -21 8 C-21 7.34 -21 6.68 -21 6 C-17.7 5.34 -14.4 4.68 -11 4 C-11 3.34 -11 2.68 -11 2 C-9.68 2 -8.36 2 -7 2 C-7 1.34 -7 0.68 -7 0 C-2.25 -1.125 -2.25 -1.125 0 0 Z " fill="#41B1F5" transform="translate(212,304)"/>
<path d="M0 0 C1.32 0.33 2.64 0.66 4 1 C3.01 1 2.02 1 1 1 C1 1.66 1 2.32 1 3 C-5.43069159 5.85305331 -10.75342497 6.46356424 -17.75 6.375 C-18.68199219 6.38660156 -19.61398438 6.39820313 -20.57421875 6.41015625 C-21.47269531 6.40628906 -22.37117187 6.40242188 -23.296875 6.3984375 C-24.10479492 6.39505371 -24.91271484 6.39166992 -25.74511719 6.38818359 C-28.49678622 5.91447704 -29.91108121 4.80613156 -32 3 C-31.37738281 3.15339844 -30.75476563 3.30679687 -30.11328125 3.46484375 C-25.81725228 4.20330795 -21.53758048 4.36462162 -17.1875 4.5625 C-15.86202148 4.62727539 -15.86202148 4.62727539 -14.50976562 4.69335938 C-12.34000377 4.79891536 -10.1700209 4.89991071 -8 5 C-7.67 4.01 -7.34 3.02 -7 2 C-4.69 2 -2.38 2 0 2 C0 1.34 0 0.68 0 0 Z " fill="#6CA0DC" transform="translate(217,273)"/>
<path d="M0 0 C4.49797113 1.68673918 8.72886302 3.81673892 13 6 C13 6.66 13 7.32 13 8 C13.99 8.33 14.98 8.66 16 9 C13 10 13 10 11.1328125 9.328125 C10.47023437 8.97234375 9.80765625 8.6165625 9.125 8.25 C8.42632812 7.87488281 7.72765625 7.49976563 7.0078125 7.11328125 C6.34523437 6.74589844 5.68265625 6.37851562 5 6 C4.01 5.484375 3.02 4.96875 2 4.4375 C1.34 3.963125 0.68 3.48875 0 3 C0 2.01 0 1.02 0 0 Z " fill="#BED1EC" transform="translate(148,393)"/>
<path d="M0 0 C0.5534764 2.07553648 1 3.84365964 1 6 C0.34 6 -0.32 6 -1 6 C-1.33 7.65 -1.66 9.3 -2 11 C-2.66 11 -3.32 11 -4 11 C-4.33 11.66 -4.66 12.32 -5 13 C-6.64363134 13.72159424 -8.31050386 14.39351421 -10 15 C-9.05806401 12.89875818 -8.25056493 11.24499682 -6.59375 9.625 C-4.82587602 7.82246182 -3.62033496 5.96866033 -2.3125 3.8125 C-1.87550781 3.09707031 -1.43851562 2.38164062 -0.98828125 1.64453125 C-0.66214844 1.10183594 -0.33601563 0.55914062 0 0 Z " fill="#C2D4EE" transform="translate(292,351)"/>
<path d="M0 0 C0.66 0 1.32 0 2 0 C2 7.26 2 14.52 2 22 C-1.23506084 15.52987833 -1.53397645 8.17727172 -1 1 C-0.67 0.67 -0.34 0.34 0 0 Z " fill="#BDD3F2" transform="translate(106,296)"/>
<path d="M0 0 C2 3 2 3 2 6 C0.68 6 -0.64 6 -2 6 C-2.33 8.64 -2.66 11.28 -3 14 C-3.66 14 -4.32 14 -5 14 C-5 14.66 -5 15.32 -5 16 C-5.66 16 -6.32 16 -7 16 C-7 16.99 -7 17.98 -7 19 C-7.66 19 -8.32 19 -9 19 C-7.05709049 11.94417074 -3.95742848 6.1346545 0 0 Z " fill="#AEC4E2" transform="translate(141,168)"/>
<path d="M0 0 C-3.60809503 4.75612527 -8.47436423 5.60804595 -14 7 C-14 6.01 -14 5.02 -14 4 C-4.58997722 -0.59225513 -4.58997722 -0.59225513 0 0 Z " fill="#E5F0FB" transform="translate(268,387)"/>
<path d="M0 0 C0.33 0 0.66 0 1 0 C0.67 3.3 0.34 6.6 0 10 C-0.66 10 -1.32 10 -2 10 C-2.12375 10.515625 -2.2475 11.03125 -2.375 11.5625 C-3.18641628 14.72702351 -4.0945913 17.86124985 -5 21 C-5.66 21 -6.32 21 -7 21 C-6.38169051 15.97525707 -4.87023224 11.75279506 -2.9375 7.125 C-2.65583984 6.43664062 -2.37417969 5.74828125 -2.08398438 5.0390625 C-1.39484734 3.35710091 -0.69819202 1.67822303 0 0 Z " fill="#93ACD2" transform="translate(104,211)"/>
<path d="M0 0 C0.99 0 1.98 0 3 0 C3 0.99 3 1.98 3 3 C2.34 3 1.68 3 1 3 C0.67 4.98 0.34 6.96 0 9 C-0.66 9 -1.32 9 -2 9 C-2.103125 9.9075 -2.20625 10.815 -2.3125 11.75 C-3.00414949 15.01961575 -3.82134921 16.53717737 -6 19 C-5.505 14.545 -5.505 14.545 -5 10 C-4.34 10 -3.68 10 -3 10 C-3 9.34 -3 8.68 -3 8 C-2.34 8 -1.68 8 -1 8 C-1.020625 7.05125 -1.04125 6.1025 -1.0625 5.125 C-1 2 -1 2 0 0 Z " fill="#E1EEFE" transform="translate(139,174)"/>
<path d="M0 0 C5.94 0 11.88 0 18 0 C18 0.66 18 1.32 18 2 C13.05 2 8.1 2 3 2 C2.67 2.66 2.34 3.32 2 4 C1.34 2.68 0.68 1.36 0 0 Z " fill="#2C8CE1" transform="translate(145,358)"/>
<path d="M0 0 C4.52615993 3.67832017 8.39424999 7.41086363 12 12 C11.67 12.66 11.34 13.32 11 14 C8.625 13.375 8.625 13.375 6 12 C5.26919734 10.02253397 4.60578253 8.01927511 4 6 C2.70529025 4.62913085 1.37849103 3.28659163 0 2 C0 1.34 0 0.68 0 0 Z " fill="#C7D6EC" transform="translate(121,371)"/>
<path d="M0 0 C0.33 0 0.66 0 1 0 C0.88623383 2.12563103 0.75864369 4.2505261 0.625 6.375 C0.55539062 7.55835938 0.48578125 8.74171875 0.4140625 9.9609375 C0 13 0 13 -2 15 C-2.66 15 -3.32 15 -4 15 C-3.50341703 9.33895411 -2.45489316 5.12325529 0 0 Z " fill="#C7DBEF" transform="translate(307,314)"/>
<path d="M0 0 C1 3 1 3 -0.3125 5.6875 C-0.869375 6.450625 -1.42625 7.21375 -2 8 C-2.66 8 -3.32 8 -4 8 C-4 8.66 -4 9.32 -4 10 C-4.66 10 -5.32 10 -6 10 C-6.33 10.66 -6.66 11.32 -7 12 C-7.99 12 -8.98 12 -10 12 C-9 9 -9 9 -6 7 C-5.67 6.01 -5.34 5.02 -5 4 C-4.01 3.67 -3.02 3.34 -2 3 C-1.34 2.01 -0.68 1.02 0 0 Z " fill="#D3E2F5" transform="translate(152,155)"/>
<path d="M0 0 C0.66 0.33 1.32 0.66 2 1 C1.07172661 2.79646436 0.13204162 4.58703557 -0.8125 6.375 C-1.59560547 7.87160156 -1.59560547 7.87160156 -2.39453125 9.3984375 C-4 12 -4 12 -7 14 C-7 12.68 -7 11.36 -7 10 C-6.34 10 -5.68 10 -5 10 C-5.33 8.68 -5.66 7.36 -6 6 C-4.68 5.67 -3.36 5.34 -2 5 C-2 4.01 -2 3.02 -2 2 C-1.34 2 -0.68 2 0 2 C0 1.34 0 0.68 0 0 Z " fill="#EEF6FE" transform="translate(298,347)"/>
<path d="M0 0 C0 4.48849638 -1.74903322 8.2129046 -4.3125 11.875 C-6.74626767 13.49751178 -9.13168422 13.68129825 -12 14 C-11.67 13.34 -11.34 12.68 -11 12 C-10.34 12 -9.68 12 -9 12 C-9 11.34 -9 10.68 -9 10 C-8.34 10 -7.68 10 -7 10 C-6.773125 9.46375 -6.54625 8.9275 -6.3125 8.375 C-4.56617944 5.21499137 -2.3597151 2.7323017 0 0 Z " fill="#A1C3E8" transform="translate(236,257)"/>
<path d="M0 0 C1 2 1 2 0.0625 5.125 C-0.288125 6.07375 -0.63875 7.0225 -1 8 C-2.11375 8.12375 -2.11375 8.12375 -3.25 8.25 C-6.51221354 9.1396946 -7.80954878 10.48503749 -10 13 C-10.66 12.67 -11.32 12.34 -12 12 C-8.04 8.04 -4.08 4.08 0 0 Z " fill="#B7CBE5" transform="translate(278,370)"/>
<path d="M0 0 C0.33 0 0.66 0 1 0 C0.67 4.62 0.34 9.24 0 14 C-0.66 14 -1.32 14 -2 14 C-2 16.64 -2 19.28 -2 22 C-2.66 22 -3.32 22 -4 22 C-3.71507769 19.64484432 -3.42225086 17.29110566 -3.125 14.9375 C-3.04636719 14.28072266 -2.96773438 13.62394531 -2.88671875 12.94726562 C-2.31282513 8.4664808 -1.33592224 4.31648825 0 0 Z " fill="#A4BDE1" transform="translate(109,241)"/>
<path d="M0 0 C1.32 0.33 2.64 0.66 4 1 C4 1.66 4 2.32 4 3 C4.7425 3.144375 5.485 3.28875 6.25 3.4375 C8.52027739 3.90187492 10.75759479 4.41863569 13 5 C13 5.66 13 6.32 13 7 C11.37419034 6.88601335 9.74932843 6.75844341 8.125 6.625 C7.22007812 6.55539062 6.31515625 6.48578125 5.3828125 6.4140625 C3 6 3 6 1 4 C1.66 4 2.32 4 3 4 C3 3.34 3 2.68 3 2 C2.01 2 1.02 2 0 2 C0 1.34 0 0.68 0 0 Z " fill="#9FC6EB" transform="translate(127,311)"/>
<path d="M0 0 C2.45453691 3.68180536 3.72299097 7.41018617 5.1875 11.5625 C5.47302734 12.34302734 5.75855469 13.12355469 6.05273438 13.92773438 C6.76316564 15.93111596 7.38825059 17.9643151 8 20 C7.67 20.66 7.34 21.32 7 22 C3.88303339 17.66335081 3.44033187 14.19591612 3 9 C2.34 9 1.68 9 1 9 C0.67 6.03 0.34 3.06 0 0 Z " fill="#A8BDE1" transform="translate(292,203)"/>
<path d="M0 0 C0.33 1.32 0.66 2.64 1 4 C0.34 4 -0.32 4 -1 4 C-1.12375 4.5775 -1.2475 5.155 -1.375 5.75 C-2.00648824 8.02335767 -2.88858191 9.9253529 -4 12 C-4.66 12 -5.32 12 -6 12 C-6.33 13.65 -6.66 15.3 -7 17 C-7.66 17 -8.32 17 -9 17 C-7.68925635 12.53817564 -5.92933989 9.00381243 -3.375 5.125 C-2.74335938 4.15820312 -2.11171875 3.19140625 -1.4609375 2.1953125 C-0.73777344 1.10863281 -0.73777344 1.10863281 0 0 Z " fill="#92ABD4" transform="translate(135,150)"/>
<path d="M0 0 C2 2 2 2 2 5 C1.01 5.495 1.01 5.495 0 6 C-0.99 7.485 -0.99 7.485 -2 9 C-2.99 9 -3.98 9 -5 9 C-5.33 10.32 -5.66 11.64 -6 13 C-6.33 12.34 -6.66 11.68 -7 11 C-6.00390625 8.8359375 -6.00390625 8.8359375 -4.5625 6.375 C-4.08941406 5.55773437 -3.61632812 4.74046875 -3.12890625 3.8984375 C-2.75636719 3.27195313 -2.38382813 2.64546875 -2 2 C-1.34 2 -0.68 2 0 2 C0 1.34 0 0.68 0 0 Z " fill="#A5BCDF" transform="translate(152,150)"/>
<path d="M0 0 C0.33 0.66 0.66 1.32 1 2 C1.66 2 2.32 2 3 2 C3.95261487 6.76307437 4.08333357 11.1666528 4 16 C1.15072098 10.70848182 -0.28788143 6.04551009 0 0 Z " fill="#DBEBFC" transform="translate(107,307)"/>
<path d="M0 0 C3.38370684 3.38370684 3.05529986 7.2332093 3.0625 11.8125 C3.04655989 13.20839779 3.02736707 14.60427948 3 16 C2.34 16 1.68 16 1 16 C-0.12862175 10.63904667 -0.09688221 5.44693314 0 0 Z " fill="#5981C1" transform="translate(292,248)"/>
<path d="M0 0 C0.66 0.33 1.32 0.66 2 1 C1.01 2.485 1.01 2.485 0 4 C-0.66 4 -1.32 4 -2 4 C-2 4.66 -2 5.32 -2 6 C-2.66 6 -3.32 6 -4 6 C-4.33 7.32 -4.66 8.64 -5 10 C-5.66 10 -6.32 10 -7 10 C-7.66 11.32 -8.32 12.64 -9 14 C-10 11 -10 11 -8.8125 8.375 C-6.75339079 5.6768569 -6.12820527 5.70636893 -3 5 C-1.77472052 3.04978917 -1.77472052 3.04978917 -1 1 C-0.67 0.67 -0.34 0.34 0 0 Z " fill="#E9F2FD" transform="translate(194,96)"/>
<path d="M0 0 C0.99 0.99 1.98 1.98 3 3 C-1.95 3 -6.9 3 -12 3 C-12 2.34 -12 1.68 -12 1 C-7.94762072 0.22811823 -4.12401319 -0.36657895 0 0 Z " fill="#CCE2F6" transform="translate(244,331)"/>
<path d="M0 0 C1.52519276 0.08937803 3.04681929 0.24537146 4.5625 0.4375 C5.38878906 0.53933594 6.21507812 0.64117187 7.06640625 0.74609375 C7.70449219 0.82988281 8.34257812 0.91367187 9 1 C9 1.33 9 1.66 9 2 C3.98391475 3.0176403 -0.78608306 3.11856434 -5.875 3.0625 C-6.65875 3.05798828 -7.4425 3.05347656 -8.25 3.04882812 C-10.16670014 3.03714093 -12.08336048 3.01920908 -14 3 C-14 2.67 -14 2.34 -14 2 C-13.07316406 1.93941406 -12.14632812 1.87882812 -11.19140625 1.81640625 C-9.39509766 1.69072266 -9.39509766 1.69072266 -7.5625 1.5625 C-5.77005859 1.44068359 -5.77005859 1.44068359 -3.94140625 1.31640625 C-1.11429756 1.32343886 -1.11429756 1.32343886 0 0 Z " fill="#013189" transform="translate(161,312)"/>
<path d="M0 0 C0.66 0.33 1.32 0.66 2 1 C-3.32902514 6.74367551 -7.15929981 9.65587997 -15 11 C-11.44490784 8.00039099 -7.74584067 5.53574373 -3.76953125 3.1484375 C-1.8531859 1.99197764 -1.8531859 1.99197764 0 0 Z " fill="#4C70B3" transform="translate(254,373)"/>
<path d="M0 0 C0.66 0.99 1.32 1.98 2 3 C1.67 3.99 1.34 4.98 1 6 C0.01 6 -0.98 6 -2 6 C-2.268125 6.969375 -2.53625 7.93875 -2.8125 8.9375 C-3.204375 9.948125 -3.59625 10.95875 -4 12 C-4.99 12.33 -5.98 12.66 -7 13 C-6.36610765 9.50155614 -4.94822306 7.15913124 -2.9375 4.25 C-2.38964844 3.45078125 -1.84179688 2.6515625 -1.27734375 1.828125 C-0.85582031 1.22484375 -0.43429688 0.6215625 0 0 Z " fill="#A7BFE1" transform="translate(160,137)"/>
<path d="M0 0 C3.50588356 0.56398996 4.98982392 1.66963773 7.25 4.375 C7.77078125 4.98085938 8.2915625 5.58671875 8.828125 6.2109375 C10 8 10 8 10 11 C8 11 8 11 6.30859375 9.35546875 C5.38240234 8.28232422 5.38240234 8.28232422 4.4375 7.1875 C3.81746094 6.47980469 3.19742188 5.77210938 2.55859375 5.04296875 C1 3 1 3 0 0 Z " fill="#F5F9FD" transform="translate(117,370)"/>
<path d="M0 0 C0.33 0 0.66 0 1 0 C0.67 2.31 0.34 4.62 0 7 C-2.07553648 7.5534764 -3.84365964 8 -6 8 C-5.34 6.35 -4.68 4.7 -4 3 C-3.01 3 -2.02 3 -1 3 C-0.67 2.01 -0.34 1.02 0 0 Z " fill="#CAE2F9" transform="translate(266,347)"/>
<path d="M0 0 C1.24546405 2.49092811 0.7767578 3.41080733 0 6 C-0.66 6 -1.32 6 -2 6 C-1.938125 6.721875 -1.87625 7.44375 -1.8125 8.1875 C-2.03523932 11.52858974 -3.1282246 13.27032755 -5 16 C-5.66 15.67 -6.32 15.34 -7 15 C-6.67 13.68 -6.34 12.36 -6 11 C-5.34 11 -4.68 11 -4 11 C-3.87882813 10.37351563 -3.75765625 9.74703125 -3.6328125 9.1015625 C-3.38144531 7.87566406 -3.38144531 7.87566406 -3.125 6.625 C-2.96257812 5.81289062 -2.80015625 5.00078125 -2.6328125 4.1640625 C-2 2 -2 2 0 0 Z " fill="#40B3F4" transform="translate(167,200)"/>
<path d="M0 0 C4 4.75 4 4.75 4 7 C4.66 7 5.32 7 6 7 C6.66 8.65 7.32 10.3 8 12 C7.01 11.67 6.02 11.34 5 11 C5 10.34 5 9.68 5 9 C3.68 8.67 2.36 8.34 1 8 C0.67 5.36 0.34 2.72 0 0 Z " fill="#4DA7EA" transform="translate(202,151)"/>
<path d="M0 0 C3.48584286 0.03134751 6.09479083 0.60989542 9.25 2.1875 C9.25 2.5175 9.25 2.8475 9.25 3.1875 C7.66705218 3.24187607 6.08355744 3.28046271 4.5 3.3125 C3.61828125 3.33570313 2.7365625 3.35890625 1.828125 3.3828125 C-0.8635858 3.17889502 -2.44904974 2.55301721 -4.75 1.1875 C-3.75 0.1875 -3.75 0.1875 0 0 Z " fill="#E9F3FC" transform="translate(247.75,330.8125)"/>
<path d="M0 0 C-0.99 0.495 -0.99 0.495 -2 1 C-2 1.66 -2 2.32 -2 3 C-3.32 3 -4.64 3 -6 3 C-6 3.66 -6 4.32 -6 5 C-9 4 -9 4 -11 3 C-11 2.34 -11 1.68 -11 1 C-7.32589215 -0.17571451 -3.83070817 -0.07366746 0 0 Z " fill="#B4D9F3" transform="translate(199,327)"/>
<path d="M0 0 C0.33 0.99 0.66 1.98 1 3 C-0.546875 5.48046875 -0.546875 5.48046875 -2.75 8.1875 C-3.46671875 9.08855469 -4.1834375 9.98960938 -4.921875 10.91796875 C-5.95054687 11.94857422 -5.95054687 11.94857422 -7 13 C-7.99 13 -8.98 13 -10 13 C-5.05 6.565 -5.05 6.565 0 0 Z " fill="#14459D" transform="translate(180,88)"/>
<path d="M0 0 C0 4.09214774 -1.60222874 5.19193703 -4.3125 8.1875 C-5.11300781 9.08855469 -5.91351563 9.98960937 -6.73828125 10.91796875 C-9 13 -9 13 -12 13 C-8.83704791 9.11408743 -5.596885 5.49967189 -2 2 C-1.34 1.34 -0.68 0.68 0 0 Z " fill="#FBFDFF" transform="translate(282,371)"/>
<path d="M0 0 C0.66 0.33 1.32 0.66 2 1 C1.67 1.99 1.34 2.98 1 4 C0.01 4 -0.98 4 -2 4 C-2 4.66 -2 5.32 -2 6 C-3.65 6.66 -5.3 7.32 -7 8 C-7.66 7.34 -8.32 6.68 -9 6 C-8.34 6 -7.68 6 -7 6 C-7 5.34 -7 4.68 -7 4 C-5.02 3.67 -3.04 3.34 -1 3 C-0.67 2.01 -0.34 1.02 0 0 Z " fill="#E2EEFD" transform="translate(231,267)"/>
<path d="M0 0 C0.625 1.8125 0.625 1.8125 1 4 C0.01 5.485 0.01 5.485 -1 7 C-1.66 7 -2.32 7 -3 7 C-3.33 7.66 -3.66 8.32 -4 9 C-4 8.34 -4 7.68 -4 7 C-4.66 7 -5.32 7 -6 7 C-5.25 5.0625 -5.25 5.0625 -4 3 C-1.875 2.25 -1.875 2.25 0 2 C0 1.34 0 0.68 0 0 Z " fill="#CDDDF1" transform="translate(167,130)"/>
<path d="M0 0 C1.32 0.33 2.64 0.66 4 1 C4 1.66 4 2.32 4 3 C6.97 3.495 6.97 3.495 10 4 C10 4.66 10 5.32 10 6 C10.99 6.33 11.98 6.66 13 7 C10.36 6.67 7.72 6.34 5 6 C5 5.34 5 4.68 5 4 C4.360625 3.896875 3.72125 3.79375 3.0625 3.6875 C2.381875 3.460625 1.70125 3.23375 1 3 C0.67 2.01 0.34 1.02 0 0 Z " fill="#C8DDF3" transform="translate(175,271)"/>
<path d="M0 0 C0.66 0 1.32 0 2 0 C3.25664978 2.90600261 4 4.79604584 4 8 C4.99 8.33 5.98 8.66 7 9 C6.67 9.99 6.34 10.98 6 12 C2.20444669 9.46963112 1.5544614 7.21925236 0 3 C0 2.01 0 1.02 0 0 Z " fill="#197CD9" transform="translate(160,248)"/>
<path d="M0 0 C1 2 1 2 0.125 4.9375 C-0.24625 5.948125 -0.6175 6.95875 -1 8 C-1.33 8.99 -1.66 9.98 -2 11 C-3.32 11 -4.64 11 -6 11 C-4.54955729 6.89041233 -2.48889248 3.56741255 0 0 Z " fill="#6A8BC3" transform="translate(142,139)"/>
<path d="M0 0 C2.97 0.33 5.94 0.66 9 1 C9 1.33 9 1.66 9 2 C7.02 2 5.04 2 3 2 C3 2.66 3 3.32 3 4 C3.99 4.33 4.98 4.66 6 5 C5.01 5.33 4.02 5.66 3 6 C2.67 6.66 2.34 7.32 2 8 C0.74335022 5.09399739 0 3.20395416 0 0 Z " fill="#96BBE2" transform="translate(126,332)"/>
<path d="M0 0 C0.97353743 3.02878312 1.24612776 5.02846457 0 8 C-2.0625 9.75 -2.0625 9.75 -4 11 C-3.48964169 6.6109185 -2.47785723 3.66291938 0 0 Z " fill="#6486C0" transform="translate(120,177)"/>
<path d="M0 0 C0.99 0 1.98 0 3 0 C3 0.99 3 1.98 3 3 C3.99 3.33 4.98 3.66 6 4 C5.01 4.33 4.02 4.66 3 5 C1.65909241 5.65129797 0.32407669 6.31513275 -1 7 C-1.33 6.34 -1.66 5.68 -2 5 C-1.0625 2.375 -1.0625 2.375 0 0 Z " fill="#D2DFEF" transform="translate(198,87)"/>
<path d="M0 0 C3.96 1.98 3.96 1.98 8 4 C5 5 5 5 3 5 C2.67 6.65 2.34 8.3 2 10 C1.67 10 1.34 10 1 10 C0.67 6.7 0.34 3.4 0 0 Z " fill="#23A4F2" transform="translate(118,310)"/>
<path d="M0 0 C0.66 0 1.32 0 2 0 C1.28571429 8.57142857 1.28571429 8.57142857 -2 12 C-2 9.69 -2 7.38 -2 5 C-1.34 5 -0.68 5 0 5 C0 3.35 0 1.7 0 0 Z " fill="#EAF4FE" transform="translate(280,320)"/>
<path d="M0 0 C2.05078125 0.03255208 4.1015625 0.06510417 6.15234375 0.09765625 C4.81901042 0.76432292 3.48567708 1.43098958 2.15234375 2.09765625 C1.25515625 2.65453125 1.25515625 2.65453125 0.33984375 3.22265625 C-2.74762802 4.45764496 -5.55990748 4.22410813 -8.84765625 4.09765625 C-8.84765625 3.76765625 -8.84765625 3.43765625 -8.84765625 3.09765625 C-7.39359375 2.63359375 -7.39359375 2.63359375 -5.91015625 2.16015625 C-3.52665601 1.3332276 -2.32822326 0.1230562 0 0 Z " fill="#83C9F8" transform="translate(176.84765625,314.90234375)"/>
<path d="M0 0 C2 1 2 1 2.8515625 2.890625 C5.41509434 10.71069182 5.41509434 10.71069182 5 15 C3.23537317 11.91190305 3 10.76687864 3 7 C2.01 6.67 1.02 6.34 0 6 C0 4.02 0 2.04 0 0 Z " fill="#7D9DCF" transform="translate(285,227)"/>
<path d="M0 0 C2.61273988 1.30636994 2.97236124 2.28409758 4 5 C4.125 8.25 4.125 8.25 4 11 C3.34 11 2.68 11 2 11 C0.80712589 7.12315913 0 4.08378077 0 0 Z " fill="#7492C4" transform="translate(277,173)"/>
<path d="M0 0 C0.66 0.33 1.32 0.66 2 1 C-0.23407889 4.35111834 -1.26215824 5.81553956 -5.25 6.8125 C-6.61125 6.9053125 -6.61125 6.9053125 -8 7 C-5.42215154 4.35247996 -3.08351902 2.05567935 0 0 Z " fill="#A9BFDD" transform="translate(264,383)"/>
<path d="M0 0 C3.625 0.375 3.625 0.375 7 1 C7 1.66 7 2.32 7 3 C4.29120665 4.35439668 1.99066732 4.06501451 -1 4 C-1.33 3.34 -1.66 2.68 -2 2 C-1.34 1.34 -0.68 0.68 0 0 Z " fill="#4F6EA8" transform="translate(166,312)"/>
<path d="M0 0 C3.26008643 3.16952847 6.22237877 6.39937989 9 10 C8.67 10.66 8.34 11.32 8 12 C4.74451247 8.97704729 2.31022942 5.79537691 0 2 C0 1.34 0 0.68 0 0 Z " fill="#C8D3E9" transform="translate(239,113)"/>
<path d="M0 0 C0.66 0 1.32 0 2 0 C3.13643966 3.40931897 2.86747764 4.00335456 1.5625 7.1875 C1.13130859 8.26064453 1.13130859 8.26064453 0.69140625 9.35546875 C0.46324219 9.89816406 0.23507813 10.44085938 0 11 C-0.33 11 -0.66 11 -1 11 C-1.125 3.375 -1.125 3.375 0 0 Z " fill="#E1EEFD" transform="translate(121,210)"/>
<path d="M0 0 C0.66 0.33 1.32 0.66 2 1 C1.67 1.66 1.34 2.32 1 3 C0.34 3 -0.32 3 -1 3 C-1.33 4.98 -1.66 6.96 -2 9 C-2.99 8.67 -3.98 8.34 -5 8 C-4.67 6.35 -4.34 4.7 -4 3 C-3.34 3 -2.68 3 -2 3 C-1.67 2.34 -1.34 1.68 -1 1 C-0.67 0.67 -0.34 0.34 0 0 Z " fill="#E4F0FD" transform="translate(146,165)"/>
<path d="M0 0 C-2.83430453 3.2542015 -4.68607774 4.5206753 -9 5 C-8.67 4.34 -8.34 3.68 -8 3 C-7.34 3 -6.68 3 -6 3 C-6 2.34 -6 1.68 -6 1 C-6.66 0.67 -7.32 0.34 -8 0 C-5.13822943 -1.43088528 -3.06624227 -0.59991697 0 0 Z " fill="#89ACD4" transform="translate(212,322)"/>
<path d="M0 0 C0.99 0.495 0.99 0.495 2 1 C4.38056989 8.64288227 4.38056989 8.64288227 3 13 C0.89172945 9.83759418 0.66182535 8.49342531 0.375 4.8125 C0.30023438 3.91144531 0.22546875 3.01039063 0.1484375 2.08203125 C0.09945312 1.39496094 0.05046875 0.70789063 0 0 Z " fill="#7698CE" transform="translate(108,318)"/>
<path d="M0 0 C0.33 0.99 0.66 1.98 1 3 C1.66 3 2.32 3 3 3 C3 4.32 3 5.64 3 7 C2.34 7 1.68 7 1 7 C1 7.99 1 8.98 1 10 C0.34 10 -0.32 10 -1 10 C-0.67 6.7 -0.34 3.4 0 0 Z " fill="#E2EFFD" transform="translate(284,301)"/>
<path d="M0 0 C2.475 0.495 2.475 0.495 5 1 C5 1.66 5 2.32 5 3 C5.639375 3.12375 6.27875 3.2475 6.9375 3.375 C7.618125 3.58125 8.29875 3.7875 9 4 C9.33 4.66 9.66 5.32 10 6 C5.56909529 4.79157144 3.01887244 3.48331435 0 0 Z " fill="#96AFD6" transform="translate(149,377)"/>
<path d="M0 0 C0.99 0.33 1.98 0.66 3 1 C1.515 4.465 1.515 4.465 0 8 C-0.66 7.67 -1.32 7.34 -2 7 C-1.34 4.69 -0.68 2.38 0 0 Z " fill="#07368D" transform="translate(275,321)"/>
<path d="M0 0 C2.0625 0.4375 2.0625 0.4375 4 1 C2 3 2 3 -0.8203125 3.1953125 C-1.91085938 3.17210937 -3.00140625 3.14890625 -4.125 3.125 C-5.22070312 3.10695313 -6.31640625 3.08890625 -7.4453125 3.0703125 C-8.28835937 3.04710937 -9.13140625 3.02390625 -10 3 C-10 2.67 -10 2.34 -10 2 C-9.04287109 1.90912109 -9.04287109 1.90912109 -8.06640625 1.81640625 C-6.82697266 1.69072266 -6.82697266 1.69072266 -5.5625 1.5625 C-4.73878906 1.48128906 -3.91507813 1.40007812 -3.06640625 1.31640625 C-1.01337975 1.21069185 -1.01337975 1.21069185 0 0 Z " fill="#E7F1FE" transform="translate(207,279)"/>
<path d="M0 0 C0.66 0 1.32 0 2 0 C2 0.66 2 1.32 2 2 C2.66 2 3.32 2 4 2 C4.33 3.98 4.66 5.96 5 8 C3.66666667 8 2.33333333 8 1 8 C0.67 5.36 0.34 2.72 0 0 Z " fill="#4792DC" transform="translate(224,198)"/>
<path d="M0 0 C1 3 1 3 0.0625 5.1875 C-0.4634375 6.0846875 -0.4634375 6.0846875 -1 7 C-1.99 7 -2.98 7 -4 7 C-4 7.66 -4 8.32 -4 9 C-4.66 8.67 -5.32 8.34 -6 8 C-4.02 5.36 -2.04 2.72 0 0 Z " fill="#BED0E7" transform="translate(185,103)"/>
<path d="M0 0 C5.78461538 4.30769231 5.78461538 4.30769231 6.875 7.8125 C6.936875 8.8953125 6.936875 8.8953125 7 10 C5.82174642 9.09827532 4.65768423 8.17798498 3.5 7.25 C2.8503125 6.73953125 2.200625 6.2290625 1.53125 5.703125 C0 4 0 4 0 0 Z " fill="#7D98CD" transform="translate(270,163)"/>
<path d="M0 0 C1.98 0.66 3.96 1.32 6 2 C6.33 3.65 6.66 5.3 7 7 C5.83040013 6.02433888 4.66438823 5.044375 3.5 4.0625 C2.8503125 3.51722656 2.200625 2.97195313 1.53125 2.41015625 C1.0259375 1.94480469 0.520625 1.47945313 0 1 C0 0.67 0 0.34 0 0 Z " fill="#DAE6F6" transform="translate(136,365)"/>
<path d="M0 0 C0.33 0.99 0.66 1.98 1 3 C-0.65 4.65 -2.3 6.3 -4 8 C-4.66 7.67 -5.32 7.34 -6 7 C-4.02 4.69 -2.04 2.38 0 0 Z " fill="#B5D6F3" transform="translate(259,354)"/>
<path d="M0 0 C-0.33 0.99 -0.66 1.98 -1 3 C-3.31 3.33 -5.62 3.66 -8 4 C-4.5 0 -4.5 0 0 0 Z " fill="#D0E1F1" transform="translate(207,343)"/>
<path d="M0 0 C0.66 0.33 1.32 0.66 2 1 C2 2.65 2 4.3 2 6 C1.01 6.33 0.02 6.66 -1 7 C-1.33 7.99 -1.66 8.98 -2 10 C-3 8 -3 8 -2.44140625 6.0546875 C-2.15136719 5.33539063 -1.86132812 4.61609375 -1.5625 3.875 C-1.27503906 3.15054687 -0.98757813 2.42609375 -0.69140625 1.6796875 C-0.46324219 1.12539063 -0.23507812 0.57109375 0 0 Z " fill="#96AFD5" transform="translate(301,329)"/>
<path d="M0 0 C0.66 0 1.32 0 2 0 C2.66 2.31 3.32 4.62 4 7 C3.01 7.33 2.02 7.66 1 8 C0.67 5.36 0.34 2.72 0 0 Z " fill="#0471D0" transform="translate(199,149)"/>
<path d="M0 0 C0.33 0.66 0.66 1.32 1 2 C0.34 1.67 -0.32 1.34 -1 1 C-0.67 0.67 -0.34 0.34 0 0 Z M-3 2 C-2.34 2.33 -1.68 2.66 -1 3 C-2.65 4.65 -4.3 6.3 -6 8 C-6.66 7.67 -7.32 7.34 -8 7 C-6.35 5.35 -4.7 3.7 -3 2 Z " fill="#B7CBE6" transform="translate(174,121)"/>
<path d="M0 0 C1.32 0 2.64 0 4 0 C4.66 2.31 5.32 4.62 6 7 C4 5.625 4 5.625 2 4 C2 3.34 2 2.68 2 2 C1.34 2 0.68 2 0 2 C0 1.34 0 0.68 0 0 Z " fill="#BACCE7" transform="translate(122,349)"/>
<path d="M0 0 C2.97 0.33 5.94 0.66 9 1 C9 1.66 9 2.32 9 3 C7.02 3 5.04 3 3 3 C3 2.34 3 1.68 3 1 C2.01 0.67 1.02 0.34 0 0 Z " fill="#BCDEFB" transform="translate(131,315)"/>
<path d="M0 0 C1.5 1.375 1.5 1.375 3 3 C3 3.66 3 4.32 3 5 C3.66 5 4.32 5 5 5 C4.67 5.66 4.34 6.32 4 7 C2.68 6.67 1.36 6.34 0 6 C0 4.02 0 2.04 0 0 Z " fill="#1D90E8" transform="translate(208,162)"/>
<path d="M0 0 C3.75376152 1.25125384 4.24073289 2.5652404 6 6 C6 6.66 6 7.32 6 8 C5.34 8 4.68 8 4 8 C2.68 5.36 1.36 2.72 0 0 Z " fill="#BECBE5" transform="translate(255,137)"/>
</svg>
